  0
SECTION
  2
HEADER
  9
$ACADVER
  1
AC1032
  9
$ACADMAINTVER
 90
      248
  9
$DWGCODEPAGE
  3
ANSI_936
  9
$LASTSAVEDBY
  1
x
  9
$REQUIREDVERSIONS
160
                 0
  9
$INSBASE
 10
0.0
 20
0.0
 30
0.0
  9
$EXTMIN
 10
-217.6535627329622
 20
-0.9019023423661217
 30
0.0
  9
$EXTMAX
 10
17.00199187016117
 20
267.2112026004502
 30
0.0
  9
$LIMMIN
 10
0.0
 20
0.0
  9
$LIMMAX
 10
12.0
 20
9.0
  9
$ORTHOMODE
 70
     0
  9
$REGENMODE
 70
     1
  9
$FILLMODE
 70
     1
  9
$QTEXTMODE
 70
     0
  9
$MIRRTEXT
 70
     0
  9
$LTSCALE
 40
1.0
  9
$ATTMODE
 70
     1
  9
$TEXTSIZE
 40
0.2
  9
$TRACEWID
 40
0.05
  9
$TEXTSTYLE
  7
STANDARD
  9
$CLAYER
  8
0
  9
$CELTYPE
  6
Continuous
  9
$CECOLOR
 62
   256
  9
$CELTSCALE
 40
1.0
  9
$DISPSILH
 70
     0
  9
$DIMSCALE
 40
1.0
  9
$DIMASZ
 40
0.18
  9
$DIMEXO
 40
0.0625
  9
$DIMDLI
 40
0.38
  9
$DIMRND
 40
0.0
  9
$DIMDLE
 40
0.0
  9
$DIMEXE
 40
0.18
  9
$DIMTP
 40
0.0
  9
$DIMTM
 40
0.0
  9
$DIMTXT
 40
0.18
  9
$DIMCEN
 40
0.09
  9
$DIMTSZ
 40
0.0
  9
$DIMTOL
 70
     0
  9
$DIMLIM
 70
     0
  9
$DIMTIH
 70
     1
  9
$DIMTOH
 70
     1
  9
$DIMSE1
 70
     0
  9
$DIMSE2
 70
     0
  9
$DIMTAD
 70
     0
  9
$DIMZIN
 70
     0
  9
$DIMBLK
  1

  9
$DIMASO
 70
     1
  9
$DIMSHO
 70
     1
  9
$DIMPOST
  1

  9
$DIMAPOST
  1

  9
$DIMALT
 70
     0
  9
$DIMALTD
 70
     2
  9
$DIMALTF
 40
25.4
  9
$DIMLFAC
 40
1.0
  9
$DIMTOFL
 70
     0
  9
$DIMTVP
 40
0.0
  9
$DIMTIX
 70
     0
  9
$DIMSOXD
 70
     0
  9
$DIMSAH
 70
     0
  9
$DIMBLK1
  1

  9
$DIMBLK2
  1

  9
$DIMSTYLE
  2
Standard
  9
$DIMCLRD
 70
     0
  9
$DIMCLRE
 70
     0
  9
$DIMCLRT
 70
     0
  9
$DIMTFAC
 40
1.0
  9
$DIMGAP
 40
0.09
  9
$DIMJUST
 70
     0
  9
$DIMSD1
 70
     0
  9
$DIMSD2
 70
     0
  9
$DIMTOLJ
 70
     1
  9
$DIMTZIN
 70
     0
  9
$DIMALTZ
 70
     0
  9
$DIMALTTZ
 70
     0
  9
$DIMUPT
 70
     0
  9
$DIMDEC
 70
     4
  9
$DIMTDEC
 70
     4
  9
$DIMALTU
 70
     2
  9
$DIMALTTD
 70
     2
  9
$DIMTXSTY
  7
STANDARD
  9
$DIMAUNIT
 70
     0
  9
$DIMADEC
 70
     0
  9
$DIMALTRND
 40
0.0
  9
$DIMAZIN
 70
     0
  9
$DIMDSEP
 70
    46
  9
$DIMATFIT
 70
     3
  9
$DIMFRAC
 70
     0
  9
$DIMLDRBLK
  1

  9
$DIMLUNIT
 70
     2
  9
$DIMLWD
 70
    -2
  9
$DIMLWE
 70
    -2
  9
$DIMTMOVE
 70
     0
  9
$DIMFXL
 40
1.0
  9
$DIMFXLON
 70
     0
  9
$DIMJOGANG
 40
0.7853981633974483
  9
$DIMTFILL
 70
     0
  9
$DIMTFILLCLR
 70
     0
  9
$DIMARCSYM
 70
     0
  9
$DIMLTYPE
  6

  9
$DIMLTEX1
  6

  9
$DIMLTEX2
  6

  9
$DIMTXTDIRECTION
 70
     0
  9
$LUNITS
 70
     2
  9
$LUPREC
 70
     4
  9
$SKETCHINC
 40
0.1
  9
$FILLETRAD
 40
0.5
  9
$AUNITS
 70
     0
  9
$AUPREC
 70
     0
  9
$MENU
  1
.
  9
$ELEVATION
 40
0.0
  9
$PELEVATION
 40
0.0
  9
$THICKNESS
 40
0.0
  9
$LIMCHECK
 70
     0
  9
$CHAMFERA
 40
0.0
  9
$CHAMFERB
 40
0.0
  9
$CHAMFERC
 40
0.0
  9
$CHAMFERD
 40
0.0
  9
$SKPOLY
 70
     0
  9
$TDCREATE
 40
2460757.585509259
  9
$TDUCREATE
 40
2460757.252175926
  9
$TDUPDATE
 40
2460757.594363426
  9
$TDUUPDATE
 40
2460757.261030093
  9
$TDINDWG
 40
0.0058912037
  9
$TDUSRTIMER
 40
0.0058912037
  9
$USRTIMER
 70
     1
  9
$ANGBASE
 50
0.0
  9
$ANGDIR
 70
     0
  9
$PDMODE
 70
     0
  9
$PDSIZE
 40
0.0
  9
$PLINEWID
 40
0.0
  9
$SPLFRAME
 70
     0
  9
$SPLINETYPE
 70
     6
  9
$SPLINESEGS
 70
     8
  9
$HANDSEED
  5
100DC
  9
$SURFTAB1
 70
     6
  9
$SURFTAB2
 70
     6
  9
$SURFTYPE
 70
     6
  9
$SURFU
 70
     6
  9
$SURFV
 70
     6
  9
$UCSBASE
  2

  9
$UCSNAME
  2

  9
$UCSORG
 10
0.0
 20
0.0
 30
0.0
  9
$UCSXDIR
 10
1.0
 20
0.0
 30
0.0
  9
$UCSYDIR
 10
0.0
 20
1.0
 30
0.0
  9
$UCSORTHOREF
  2

  9
$UCSORTHOVIEW
 70
     0
  9
$UCSORGTOP
 10
0.0
 20
0.0
 30
0.0
  9
$UCSORGBOTTOM
 10
0.0
 20
0.0
 30
0.0
  9
$UCSORGLEFT
 10
0.0
 20
0.0
 30
0.0
  9
$UCSORGRIGHT
 10
0.0
 20
0.0
 30
0.0
  9
$UCSORGFRONT
 10
0.0
 20
0.0
 30
0.0
  9
$UCSORGBACK
 10
0.0
 20
0.0
 30
0.0
  9
$PUCSBASE
  2

  9
$PUCSNAME
  2

  9
$PUCSORG
 10
0.0
 20
0.0
 30
0.0
  9
$PUCSXDIR
 10
1.0
 20
0.0
 30
0.0
  9
$PUCSYDIR
 10
0.0
 20
1.0
 30
0.0
  9
$PUCSORTHOREF
  2

  9
$PUCSORTHOVIEW
 70
     0
  9
$PUCSORGTOP
 10
0.0
 20
0.0
 30
0.0
  9
$PUCSORGBOTTOM
 10
0.0
 20
0.0
 30
0.0
  9
$PUCSORGLEFT
 10
0.0
 20
0.0
 30
0.0
  9
$PUCSORGRIGHT
 10
0.0
 20
0.0
 30
0.0
  9
$PUCSORGFRONT
 10
0.0
 20
0.0
 30
0.0
  9
$PUCSORGBACK
 10
0.0
 20
0.0
 30
0.0
  9
$USERI1
 70
     0
  9
$USERI2
 70
     0
  9
$USERI3
 70
     0
  9
$USERI4
 70
     0
  9
$USERI5
 70
     0
  9
$USERR1
 40
0.0
  9
$USERR2
 40
0.0
  9
$USERR3
 40
0.0
  9
$USERR4
 40
0.0
  9
$USERR5
 40
0.0
  9
$WORLDVIEW
 70
     1
  9
$SHADEDGE
 70
     3
  9
$SHADEDIF
 70
    70
  9
$TILEMODE
 70
     1
  9
$MAXACTVP
 70
    64
  9
$PINSBASE
 10
0.0
 20
0.0
 30
0.0
  9
$PLIMCHECK
 70
     0
  9
$PEXTMIN
 10
1.000000000000000E+20
 20
1.000000000000000E+20
 30
1.000000000000000E+20
  9
$PEXTMAX
 10
-1.000000000000000E+20
 20
-1.000000000000000E+20
 30
-1.000000000000000E+20
  9
$PLIMMIN
 10
0.0
 20
0.0
  9
$PLIMMAX
 10
12.0
 20
9.0
  9
$UNITMODE
 70
     0
  9
$VISRETAIN
 70
     1
  9
$PLINEGEN
 70
     0
  9
$PSLTSCALE
 70
     1
  9
$TREEDEPTH
 70
  3020
  9
$CMLSTYLE
  2
Standard
  9
$CMLJUST
 70
     0
  9
$CMLSCALE
 40
1.0
  9
$PROXYGRAPHICS
 70
     1
  9
$MEASUREMENT
 70
     0
  9
$CELWEIGHT
370
    -1
  9
$ENDCAPS
280
     0
  9
$JOINSTYLE
280
     0
  9
$LWDISPLAY
290
     0
  9
$INSUNITS
 70
     4
  9
$HYPERLINKBASE
  1

  9
$STYLESHEET
  1

  9
$XEDIT
290
     1
  9
$CEPSNTYPE
380
     0
  9
$PSTYLEMODE
290
     1
  9
$FINGERPRINTGUID
  2
{BDD4B385-98C8-7741-A1D0-6A03312E0023}
  9
$VERSIONGUID
  2
{9C48AA04-2F19-A648-B420-DA0C94935D33}
  9
$EXTNAMES
290
     1
  9
$PSVPSCALE
 40
0.0
  9
$OLESTARTUP
290
     0
  9
$SORTENTS
280
   127
  9
$INDEXCTL
280
     0
  9
$HIDETEXT
280
     0
  9
$XCLIPFRAME
280
     2
  9
$HALOGAP
280
     0
  9
$OBSCOLOR
 70
   257
  9
$OBSLTYPE
280
     0
  9
$INTERSECTIONDISPLAY
280
     0
  9
$INTERSECTIONCOLOR
 70
   257
  9
$DIMASSOC
280
     1
  9
$PROJECTNAME
  1

  9
$CAMERADISPLAY
290
     0
  9
$LENSLENGTH
 40
50.0
  9
$CAMERAHEIGHT
 40
0.0
  9
$STEPSPERSEC
 40
2.0
  9
$STEPSIZE
 40
6.0
  9
$3DDWFPREC
 40
2.0
  9
$PSOLWIDTH
 40
0.25
  9
$PSOLHEIGHT
 40
4.0
  9
$LOFTANG1
 40
1.570796326794896
  9
$LOFTANG2
 40
1.570796326794896
  9
$LOFTMAG1
 40
0.0
  9
$LOFTMAG2
 40
0.0
  9
$LOFTPARAM
 70
     7
  9
$LOFTNORMALS
280
     1
  9
$LATITUDE
 40
37.795
  9
$LONGITUDE
 40
-122.394
  9
$NORTHDIRECTION
 40
0.0
  9
$TIMEZONE
 70
 -8000
  9
$LIGHTGLYPHDISPLAY
280
     1
  9
$TILEMODELIGHTSYNCH
280
     1
  9
$CMATERIAL
347
10005
  9
$SOLIDHIST
280
     0
  9
$SHOWHIST
280
     1
  9
$DWFFRAME
280
     2
  9
$DGNFRAME
280
     0
  9
$REALWORLDSCALE
290
     1
  9
$INTERFERECOLOR
 62
     1
  9
$INTERFEREOBJVS
345
10027
  9
$INTERFEREVPVS
346
10024
  9
$CSHADOW
280
     0
  9
$SHADOWPLANELOCATION
 40
0.0
  0
ENDSEC
  0
SECTION
  2
CLASSES
  0
CLASS
  1
ACDBDICTIONARYWDFLT
  2
AcDbDictionaryWithDefault
  3
ObjectDBX Classes
 90
        0
 91
        1
280
     0
281
     0
  0
CLASS
  1
MATERIAL
  2
AcDbMaterial
  3
ObjectDBX Classes
 90
     1153
 91
        3
280
     0
281
     0
  0
CLASS
  1
VISUALSTYLE
  2
AcDbVisualStyle
  3
ObjectDBX Classes
 90
     4095
 91
       24
280
     0
281
     0
  0
CLASS
  1
TABLESTYLE
  2
AcDbTableStyle
  3
ObjectDBX Classes
 90
     4095
 91
        1
280
     0
281
     0
  0
CLASS
  1
SCALE
  2
AcDbScale
  3
ObjectDBX Classes
 90
     1153
 91
       17
280
     0
281
     0
  0
CLASS
  1
MLEADERSTYLE
  2
AcDbMLeaderStyle
  3
ACDB_MLEADERSTYLE_CLASS
 90
     4095
 91
        1
280
     0
281
     0
  0
CLASS
  1
ACDBSECTIONVIEWSTYLE
  2
AcDbSectionViewStyle
  3
ObjectDBX Classes
 90
     1025
 91
        1
280
     0
281
     0
  0
CLASS
  1
ACDBDETAILVIEWSTYLE
  2
AcDbDetailViewStyle
  3
ObjectDBX Classes
 90
     1025
 91
        1
280
     0
281
     0
  0
CLASS
  1
DICTIONARYVAR
  2
AcDbDictionaryVar
  3
ObjectDBX Classes
 90
        0
 91
       10
280
     0
281
     0
  0
CLASS
  1
CELLSTYLEMAP
  2
AcDbCellStyleMap
  3
ObjectDBX Classes
 90
     1152
 91
        2
280
     0
281
     0
  0
ENDSEC
  0
SECTION
  2
TABLES
  0
TABLE
  2
VPORT
  5
8
330
0
100
AcDbSymbolTable
 70
     1
  0
VPORT
  5
10059
330
8
100
AcDbSymbolTableRecord
100
AcDbViewportTableRecord
  2
*Active
 70
     0
 10
0.0
 20
0.0
 11
1.0
 21
1.0
 12
-44.0291801330211
 22
212.6839066716271
 13
0.0
 23
0.0
 14
1.0
 24
1.0
 15
0.0
 25
0.0
 16
0.0
 26
0.0
 36
1.0
 17
0.0
 27
0.0
 37
0.0
 40
327.8178778323621
 41
2.555925432756324
 42
50.0
 43
0.0
 44
0.0
 50
0.0
 51
0.0
 71
     0
 72
  1000
 73
     1
 74
     3
 75
     0
 76
     0
 77
     0
 78
     0
281
     0
 65
     1
110
0.0
120
0.0
130
0.0
111
1.0
121
0.0
131
0.0
112
0.0
122
1.0
132
0.0
 79
     0
146
0.0
348
10023
 60
     3
 61
     5
292
     1
282
     1
141
0.0
142
0.0
 63
   250
421
  3355443
1001
ACAD_NAV_VCDISPLAY
1070
     1
  0
ENDTAB
  0
TABLE
  2
LTYPE
  5
5
330
0
100
AcDbSymbolTable
 70
     3
  0
LTYPE
  5
14
330
5
100
AcDbSymbolTableRecord
100
AcDbLinetypeTableRecord
  2
BYBLOCK
 70
     0
  3

 72
    65
 73
     0
 40
0.0
  0
LTYPE
  5
15
330
5
100
AcDbSymbolTableRecord
100
AcDbLinetypeTableRecord
  2
BYLAYER
 70
     0
  3

 72
    65
 73
     0
 40
0.0
  0
LTYPE
  5
10001
330
5
100
AcDbSymbolTableRecord
100
AcDbLinetypeTableRecord
  2
Continuous
 70
     0
  3
Solid line
 72
    65
 73
     0
 40
0.0
  0
LTYPE
  5
16
330
5
100
AcDbSymbolTableRecord
100
AcDbLinetypeTableRecord
  2
DASHED
 70
     0
  3
Dashed __ __ __ __ __ __ __ __ __ __ __ __ __ _
 72
    65
 73
     2
 40
0.75
 49
0.5
 74
     0
 49
-0.25
 74
     0
  0
ENDTAB
  0
TABLE
  2
LAYER
  5
2
330
0
100
AcDbSymbolTable
 70
     2
  0
LAYER
  5
50
102
{ACAD_XDICTIONARY
360
1005C
102
}
330
2
100
AcDbSymbolTableRecord
100
AcDbLayerTableRecord
  2
1
 70
     0
 62
     7
  6
DASHED
370
    -3
390
10003
347
10015
348
0
  0
LAYER
  5
51
330
2
100
AcDbSymbolTableRecord
100
AcDbLayerTableRecord
  2
0
 70
     0
 62
     7
  6
Continuous
370
    -3
390
10003
347
10015
348
0
  0
ENDTAB
  0
TABLE
  2
STYLE
  5
3
330
0
100
AcDbSymbolTable
 70
     1
  0
STYLE
  5
11
330
3
100
AcDbSymbolTableRecord
100
AcDbTextStyleTableRecord
  2
STANDARD
 70
     0
 40
0.0
 41
1.0
 50
0.0
 71
     0
 42
0.2
  3

  4

  0
ENDTAB
  0
TABLE
  2
VIEW
  5
6
330
0
100
AcDbSymbolTable
 70
     0
  0
ENDTAB
  0
TABLE
  2
UCS
  5
7
330
0
100
AcDbSymbolTable
 70
     0
  0
ENDTAB
  0
TABLE
  2
APPID
  5
9
330
0
100
AcDbSymbolTable
 70
     3
  0
APPID
  5
12
330
9
100
AcDbSymbolTableRecord
100
AcDbRegAppTableRecord
  2
ACAD
 70
     0
  0
APPID
  5
10058
330
9
100
AcDbSymbolTableRecord
100
AcDbRegAppTableRecord
  2
ACAD_NAV_VCDISPLAY
 70
     0
  0
APPID
  5
100D3
330
9
100
AcDbSymbolTableRecord
100
AcDbRegAppTableRecord
  2
ACAD_EXEMPT_FROM_CAD_STANDARDS
 70
     0
  0
ENDTAB
  0
TABLE
  2
DIMSTYLE
  5
A
330
0
100
AcDbSymbolTable
 70
     2
100
AcDbDimStyleTable
 71
     0
  0
DIMSTYLE
105
10053
330
A
100
AcDbSymbolTableRecord
100
AcDbDimStyleTableRecord
  2
Standard
 70
     0
340
11
  0
ENDTAB
  0
TABLE
  2
BLOCK_RECORD
  5
1
330
0
100
AcDbSymbolTable
 70
     3
  0
BLOCK_RECORD
  5
1F
330
1
100
AcDbSymbolTableRecord
100
AcDbBlockTableRecord
  2
*MODEL_SPACE
340
10055
 70
     0
280
     1
281
     0
  0
BLOCK_RECORD
  5
1B
330
1
100
AcDbSymbolTableRecord
100
AcDbBlockTableRecord
  2
*PAPER_SPACE
340
10056
 70
     0
280
     1
281
     0
  0
BLOCK_RECORD
  5
10087
330
1
100
AcDbSymbolTableRecord
100
AcDbBlockTableRecord
  2
A$Cbc6cee73
340
0
 70
     4
280
     1
281
     0
  0
ENDTAB
  0
ENDSEC
  0
SECTION
  2
BLOCKS
  0
BLOCK
  5
20
330
1F
100
AcDbEntity
  8
0
100
AcDbBlockBegin
  2
*MODEL_SPACE
 70
     0
 10
0.0
 20
0.0
 30
0.0
  3
*MODEL_SPACE
  1

  0
ENDBLK
  5
21
330
1F
100
AcDbEntity
  8
0
100
AcDbBlockEnd
  0
BLOCK
  5
1C
330
1B
100
AcDbEntity
 67
     1
  8
0
100
AcDbBlockBegin
  2
*PAPER_SPACE
 70
     0
 10
0.0
 20
0.0
 30
0.0
  3
*PAPER_SPACE
  1

  0
ENDBLK
  5
1D
330
1B
100
AcDbEntity
 67
     1
  8
0
100
AcDbBlockEnd
  0
BLOCK
  5
100D1
330
10087
100
AcDbEntity
  8
0
100
AcDbBlockBegin
  2
A$Cbc6cee73
 70
     0
 10
0.0
 20
0.0
 30
0.0
  3
A$Cbc6cee73
  1

  0
LWPOLYLINE
  5
10088
330
10087
100
AcDbEntity
  8
0
100
AcDbPolyline
 90
       20
 70
     1
 43
0.0
 10
131.8441513488977
 20
0.9711257721394112
 10
123.96531999717
 20
0.0037269241793418
 42
-0.4142135623730951
 10
123.4081122496468
 20
0.4390653282973834
 10
121.7019414419747
 20
14.33471145127594
 42
-0.4142135623730951
 10
122.1372798460928
 20
14.89191919879917
 10
130.4560572795366
 20
15.91333663321357
 42
-0.41421356237309
 10
131.0132650270598
 20
15.47799822909547
 10
131.1960690421675
 20
13.98917900163342
 10
145.5827773736709
 20
15.75564466695524
 10
145.3999733585631
 20
17.24446389441726
 42
-0.4142135623730951
 10
145.8353117626812
 20
17.80167164194051
 10
154.154089196125
 20
18.8230890763549
 42
-0.4142135623730951
 10
154.7112969436482
 20
18.38775067223681
 10
156.4174677513103
 20
4.492104549257001
 42
-0.4142135623730951
 10
155.982129347201
 20
3.934896801745047
 10
148.1032979954721
 20
2.967497953794984
 10
148.1642326671759
 20
2.471224877964254
 42
-0.4142135623730951
 10
147.7288942630578
 20
1.914017130441006
 10
132.4622937681247
 20
0.0395142921905833
 42
-0.4142135623730847
 10
131.9050860206015
 20
0.4748526963086684
  0
LWPOLYLINE
  5
10089
330
10087
100
AcDbEntity
  8
0
100
AcDbPolyline
 90
       20
 70
     1
 43
0.0
 10
99.83465634925515
 20
0.0037269241893316
 10
91.95582499752637
 20
0.9711257721394112
 10
91.89489032582246
 20
0.4748526963086684
 42
-0.4142135623730959
 10
91.33768257829926
 20
0.0395142921905833
 10
76.07108208336615
 20
1.914017130441019
 42
-0.4142135623730959
 10
75.63574367924815
 20
2.471224877964254
 10
75.69667835095194
 20
2.967497953794954
 10
67.81784699922176
 20
3.93489680173503
 42
-0.41421356237309
 10
67.38250859510376
 20
4.492104549258252
 10
69.08867940277577
 20
18.38775067223682
 42
-0.4142135623731004
 10
69.64588715029896
 20
18.82308907635491
 10
77.96466458374277
 20
17.80167164194051
 42
-0.4142135623730951
 10
78.40000298786086
 20
17.24446389441727
 10
78.21719897275315
 20
15.75564466695522
 10
92.60390730425646
 20
13.98917900163343
 10
92.78671131936416
 20
15.47799822909548
 42
-0.4142135623731054
 10
93.34391906688747
 20
15.91333663321359
 10
101.6626965003311
 20
14.89191919879917
 42
-0.4142135623731054
 10
102.0980349044492
 20
14.33471145127592
 10
100.3918640967671
 20
0.439065328298605
 42
-0.41421356237309
  0
LWPOLYLINE
  5
1008A
330
10087
100
AcDbEntity
  8
0
100
AcDbPolyline
 90
        8
 70
     1
 43
0.0
 10
25.78024137192855
 20
22.19409348105671
 10
38.68334134326568
 20
20.60979201678978
 42
-0.4142135623730951
 10
39.11867974738377
 20
20.05258426926655
 10
37.53437828311687
 20
7.14948429792936
 42
-0.4142135623730951
 10
36.97717053559367
 20
6.714145893811268
 10
24.07407056425646
 20
8.298447358078179
 42
-0.4142135623730912
 10
23.63873216013835
 20
8.855655105601417
 10
25.22303362440525
 20
21.7587550769386
 42
-0.4142135623731056
  0
LWPOLYLINE
  5
1008B
330
10087
100
AcDbEntity
  8
0
100
AcDbPolyline
 90
        8
 70
     1
 43
0.0
 10
199.8986022693961
 20
8.29844735807816
 10
186.9955022980589
 20
6.714145893811259
 42
-0.4142135623730635
 10
186.4382945505358
 20
7.149484297929328
 10
184.8539930862687
 20
20.05258426926653
 42
-0.4142135623731066
 10
185.2893314903868
 20
20.60979201678976
 10
198.192431461724
 20
22.19409348105667
 42
-0.41421356237309
 10
198.7496392092473
 20
21.7587550769386
 10
200.3339406735143
 20
8.855655105601389
 42
-0.4142135623730996
  0
LWPOLYLINE
  5
1008C
330
10087
100
AcDbEntity
  8
0
100
AcDbPolyline
 90
        8
 70
     1
 43
0.0
 10
60.61217577155258
 20
3.812132153976186
 42
0.4142135623730951
 10
61.16938351907584
 20
4.247470558094272
 10
62.75368498334277
 20
17.15057052943147
 42
0.4142135623730951
 10
62.31834657922465
 20
17.70777827695469
 10
47.05174608429155
 20
19.58228111520513
 42
0.4142135623730951
 10
46.49453833676836
 20
19.14694271108704
 10
44.91023687250148
 20
6.243842739749874
 42
0.4142135623730959
 10
45.34557527661957
 20
5.686634992226624
  0
LWPOLYLINE
  5
1008D
330
10087
100
AcDbEntity
  8
0
100
AcDbPolyline
 90
        8
 70
     1
 43
0.0
 10
223.3609110181267
 20
11.20046109791323
 10
210.4578110467894
 20
9.616159633646299
 42
-0.4142135623731062
 10
209.9006032992662
 20
10.0514980377644
 10
208.3163018349993
 20
22.9545980091016
 42
-0.4142135623730841
 10
208.7516402391174
 20
23.51180575662483
 10
221.6547402104545
 20
25.09610722089177
 42
-0.4142135623731094
 10
222.2119479579778
 20
24.66076881677367
 10
223.7962494222447
 20
11.75766884543648
 42
-0.4142135623730789
  0
LWPOLYLINE
  5
1008E
330
10087
100
AcDbEntity
  8
0
100
AcDbPolyline
 90
        8
 70
     1
 43
0.0
 10
161.4816297671994
 20
17.70777827695469
 42
0.41421356237309
 10
161.0462913630812
 20
17.15057052943144
 10
162.6305928273482
 20
4.247470558094256
 42
0.4142135623730951
 10
163.1878005748714
 20
3.812132153976173
 10
178.4544010698045
 20
5.686634992226609
 42
0.4142135623730847
 10
178.8897394739227
 20
6.24384273974986
 10
177.3054380096557
 20
19.146942711087
 42
0.4142135623731118
 10
176.7482302621324
 20
19.58228111520512
  0
LWPOLYLINE
  5
1008F
330
10087
100
AcDbEntity
  8
0
100
AcDbPolyline
 90
        8
 70
     1
 43
0.0
 10
2.145236135969469
 20
25.09610722089177
 10
15.04833610730665
 20
23.51180575662484
 42
-0.4142135623730951
 10
15.48367451142474
 20
22.95459800910162
 10
13.89937304715784
 20
10.05149803776443
 42
-0.4142135623730943
 10
13.34216529963464
 20
9.616159633646338
 10
0.4390653282974882
 20
11.20046109791327
 42
-0.4142135623730906
 10
0.0037269241793467
 20
11.75766884543651
 10
1.588028388446275
 20
24.66076881677369
 42
-0.4142135623730951
  0
LWPOLYLINE
  5
10090
330
10087
100
AcDbEntity
  8
0
100
AcDbPolyline
 90
        8
 70
     1
 43
0.0
 10
127.2618640368654
 20
38.29086107384305
 10
125.6775625725985
 20
51.19396104518024
 42
-0.4142135623730959
 10
126.1129009767166
 20
51.75116879270348
 10
139.0160009480537
 20
53.33547025697039
 42
-0.4142135623730976
 10
139.573208695577
 20
52.9001318528523
 10
141.1575101598439
 20
39.99703188151512
 42
-0.4142135623730966
 10
140.7221717557258
 20
39.43982413399186
 10
127.8190717843887
 20
37.85552266972495
 42
-0.4142135623730951
  0
LWPOLYLINE
  5
10091
330
10087
100
AcDbEntity
  8
0
100
AcDbPolyline
 90
        8
 70
     1
 43
0.0
 10
159.630175944493
 20
41.76143512585993
 10
146.7270759731559
 20
40.17713366159303
 42
-0.4142135623730976
 10
146.1698682256327
 20
40.61247206571111
 10
144.5855667613657
 20
53.51557203704828
 42
-0.4142135623730955
 10
145.0209051654838
 20
54.07277978457153
 10
157.924005136821
 20
55.65708124883845
 42
-0.414213562373099
 10
158.4812128843442
 20
55.22174284472033
 10
160.0655143486111
 20
42.31864287338317
 42
-0.4142135623730951
  0
LWPOLYLINE
  5
10092
330
10087
100
AcDbEntity
  8
0
100
AcDbPolyline
 90
        8
 70
     1
 43
0.0
 10
177.3892170731114
 20
57.5433538365884
 10
178.9735185373783
 20
44.64025386525122
 42
-0.414213562373102
 10
178.5381801332602
 20
44.08304611772797
 10
165.635080161923
 20
42.49874465346107
 42
-0.4142135623730976
 10
165.0778724143998
 20
42.93408305757915
 10
163.4935709501329
 20
55.83718302891636
 42
-0.4142135623730955
 10
163.928909354251
 20
56.39439077643959
 10
176.8320093255881
 20
57.97869224070648
 42
-0.4142135623731144
  0
LWPOLYLINE
  5
10093
330
10087
100
AcDbEntity
  8
0
100
AcDbPolyline
 90
        8
 70
     1
 43
0.0
 10
199.7677953138954
 20
27.49665292082886
 10
186.8646953425582
 20
25.91235145656192
 42
-0.4142135623731106
 10
186.307487595035
 20
26.34768986068003
 10
184.7231861307681
 20
39.25078983201721
 42
-0.4142135623730966
 10
185.1585245348862
 20
39.80799757954044
 10
198.0616245062233
 20
41.39229904380736
 42
-0.4142135623731081
 10
198.6188322537467
 20
40.95696063968928
 10
200.2031337180135
 20
28.05386066835211
 42
-0.4142135623731042
  0
LWPOLYLINE
  5
10094
330
10087
100
AcDbEntity
  8
0
100
AcDbPolyline
 90
        8
 70
     1
 43
0.0
 10
167.3994834062679
 20
24.02607886881196
 10
165.815181942001
 20
36.92917884014917
 42
-0.4142135623730943
 10
166.250520346119
 20
37.4863865876724
 10
179.1536203174563
 20
39.0706880519393
 42
-0.41421356237309
 10
179.7108280649794
 20
38.63534964782122
 10
181.2951295292464
 20
25.73224967648404
 42
-0.4142135623731042
 10
180.8597911251283
 20
25.1750419289608
 10
167.9566911537911
 20
23.59074046469389
 42
-0.4142135623730951
  0
LWPOLYLINE
  5
10095
330
10087
100
AcDbEntity
  8
0
100
AcDbPolyline
 90
        8
 70
     1
 43
0.0
 10
147.3425161573519
 20
35.16477559580435
 10
160.245616128689
 20
36.74907706007125
 42
-0.41421356237309
 10
160.8028238762122
 20
36.31373865595314
 10
162.3871253404791
 20
23.41063868461598
 42
-0.4142135623731054
 10
161.9517869363611
 20
22.85343093709274
 10
149.0486869650239
 20
21.26912947282584
 42
-0.4142135623731004
 10
148.4914792175007
 20
21.70446787694393
 10
146.9071777532338
 20
34.60756784828111
 42
-0.4142135623730951
  0
LWPOLYLINE
  5
10096
330
10087
100
AcDbEntity
  8
0
100
AcDbPolyline
 90
        8
 70
     1
 43
0.0
 10
219.8903369661097
 20
43.56877300554082
 10
221.4746384303767
 20
30.66567303420366
 42
-0.4142135623730809
 10
221.0393000262585
 20
30.10846528668043
 10
208.1362000549213
 20
28.5241638224135
 42
-0.41421356237309
 10
207.5789923073981
 20
28.9595022265316
 10
205.9946908431312
 20
41.86260219786875
 42
-0.4142135623731071
 10
206.4300292472493
 20
42.419809945392
 10
219.3331292185864
 20
44.00411140965893
 42
-0.414213562373117
  0
LWPOLYLINE
  5
10097
330
10087
100
AcDbEntity
  8
0
100
AcDbPolyline
 90
        8
 70
     1
 43
0.0
 10
195.1245733301593
 20
65.31266129836322
 10
182.2214733588222
 20
63.72835983409629
 42
-0.4142135623730887
 10
181.6642656112988
 20
64.16369823821439
 10
180.079964147032
 20
77.06679820955159
 42
-0.4142135623730995
 10
180.5153025511501
 20
77.62400595707484
 10
193.4184025224872
 20
79.20830742134175
 42
-0.4142135623731106
 10
193.9756102700105
 20
78.77296901722366
 10
195.5599117342774
 20
65.86986904588647
 42
-0.4142135623731066
  0
LWPOLYLINE
  5
10098
330
10087
100
AcDbEntity
  8
0
100
AcDbPolyline
 90
        8
 70
     1
 43
0.0
 10
162.7562614225317
 20
61.84208724634636
 10
161.1719599582648
 20
74.74518721768355
 42
-0.4142135623730944
 10
161.6072983623829
 20
75.30239496520677
 10
174.5103983337201
 20
76.88669642947371
 42
-0.4142135623730887
 10
175.0676060812433
 20
76.4513580253556
 10
176.6519075455103
 20
63.54825805401841
 42
-0.4142135623730966
 10
176.2165691413921
 20
62.99105030649519
 10
163.313469170055
 20
61.40674884222828
 42
-0.4142135623730939
  0
LWPOLYLINE
  5
10099
330
10087
100
AcDbEntity
  8
0
100
AcDbPolyline
 90
        8
 70
     1
 43
0.0
 10
142.6992941736157
 20
72.98078397333871
 10
155.6023941449529
 20
74.56508543760564
 42
-0.4142135623730873
 10
156.1596018924761
 20
74.12974703348755
 10
157.743903356743
 20
61.22664706215036
 42
-0.4142135623731057
 10
157.3085649526249
 20
60.66943931462712
 10
144.4054649812878
 20
59.08513785036022
 42
-0.414213562373099
 10
143.8482572337646
 20
59.52047625447829
 10
142.2639557694977
 20
72.42357622581552
 42
-0.4142135623730939
  0
LWPOLYLINE
  5
1009A
330
10087
100
AcDbEntity
  8
0
100
AcDbPolyline
 90
        8
 70
     1
 43
0.0
 10
215.2471149823736
 20
81.38478138307524
 10
216.8314164466405
 20
68.48168141173802
 42
-0.4142135623730815
 10
216.3960780425224
 20
67.92447366421481
 10
203.4929780711852
 20
66.34017219994787
 42
-0.41421356237309
 10
202.935770323662
 20
66.77551060406599
 10
201.351468859395
 20
79.67861057540315
 42
-0.4142135623731047
 10
201.7868072635131
 20
80.2358183229264
 10
214.6899072348503
 20
81.82011978719334
 42
-0.4142135623731054
  0
LWPOLYLINE
  5
1009B
330
10087
100
AcDbEntity
  8
0
100
AcDbPolyline
 90
        8
 70
     1
 43
0.0
 10
124.8564739815417
 20
18.80245413710883
 10
123.2721725172748
 20
31.70555410844602
 42
-0.4142135623730944
 10
123.7075109213928
 20
32.26276185596927
 10
136.61061089273
 20
33.84706332023619
 42
-0.4142135623730912
 10
137.1678186402532
 20
33.41172491611808
 10
138.7521201045201
 20
20.5086249447809
 42
-0.4142135623730944
 10
138.3167817004021
 20
19.95141719725766
 10
125.4136817290649
 20
18.36711573299073
 42
-0.4142135623730906
  0
LWPOLYLINE
  5
1009C
330
10087
100
AcDbEntity
  8
0
100
AcDbPolyline
 90
        8
 70
     1
 43
0.0
 10
44.82645780904576
 20
44.64025386525125
 10
46.41075927331266
 20
57.54335383658842
 42
-0.4142135623731004
 10
46.96796702083585
 20
57.97869224070652
 10
59.87106699217315
 20
56.39439077643961
 42
-0.4142135623730959
 10
60.30640539629115
 20
55.83718302891636
 10
58.72210393202426
 20
42.93408305757917
 42
-0.4142135623730999
 10
58.16489618450106
 20
42.49874465346108
 10
45.26179621316384
 20
44.08304611772797
 42
-0.4142135623730983
  0
LWPOLYLINE
  5
1009D
330
10087
100
AcDbEntity
  8
0
100
AcDbPolyline
 90
        8
 70
     1
 43
0.0
 10
66.05607298968107
 20
61.22664706215037
 42
0.4142135623731004
 10
66.49141139379915
 20
60.6694393146271
 10
79.39451136513625
 20
59.08513785036021
 42
0.4142135623730944
 10
79.95171911265948
 20
59.52047625447829
 10
81.53602057692646
 20
72.42357622581552
 42
0.4142135623730977
 10
81.10068217280838
 20
72.98078397333871
 10
68.19758220147116
 20
74.56508543760564
 42
0.41421356237309
 10
67.64037445394797
 20
74.12974703348756
  0
LWPOLYLINE
  5
1009E
330
10087
100
AcDbEntity
  8
0
100
AcDbPolyline
 90
        8
 70
     1
 43
0.0
 10
25.91845362027857
 20
46.96186485711931
 10
27.50275508454559
 20
59.86496482845647
 42
-0.4142135623731062
 10
28.05996283206875
 20
60.30030323257457
 10
40.96306280340598
 20
58.7160017683076
 42
-0.4142135623730944
 10
41.39840120752396
 20
58.15879402078444
 10
39.81409974325714
 20
45.25569404944724
 42
-0.4142135623730993
 10
39.25689199573387
 20
44.82035564532913
 10
26.35379202439665
 20
46.40465710959603
 42
-0.4142135623730913
  0
LWPOLYLINE
  5
1009F
330
10087
100
AcDbEntity
  8
0
100
AcDbPolyline
 90
        8
 70
     1
 43
0.0
 10
62.62801638815924
 20
74.74518721768355
 42
0.4142135623730951
 10
62.19267798404115
 20
75.3023949652068
 10
49.28957801270397
 20
76.88669642947371
 42
0.4142135623731004
 10
48.73237026518075
 20
76.4513580253556
 10
47.14806880091384
 20
63.54825805401844
 42
0.4142135623730996
 10
47.58340720503198
 20
62.99105030649519
 10
60.48650717636917
 20
61.40674884222828
 42
0.4142135623730798
 10
61.04371492389237
 20
61.84208724634636
  0
LWPOLYLINE
  5
100A0
330
10087
100
AcDbEntity
  8
0
100
AcDbPolyline
 90
        8
 70
     1
 43
0.0
 10
23.59684262841057
 20
28.05386066835213
 10
25.1811440926775
 20
40.9569606396893
 42
-0.414213562373105
 10
25.73835184020075
 20
41.39229904380737
 10
38.64145181153796
 20
39.8079975795404
 42
-0.4142135623730943
 10
39.07679021565596
 20
39.25078983201723
 10
37.49248875138909
 20
26.34768986068007
 42
-0.414213562373099
 10
36.93528100386584
 20
25.91235145656195
 10
24.03218103252868
 20
27.49665292082887
 42
-0.4142135623731054
  0
LWPOLYLINE
  5
100A1
330
10087
100
AcDbEntity
  8
0
100
AcDbPolyline
 90
        8
 70
     1
 43
0.0
 10
17.80528550329285
 20
41.8626021978688
 42
0.4142135623731004
 10
17.36994709917482
 20
42.41980994539197
 10
4.466847127837667
 20
44.00411140965895
 42
0.4142135623731155
 10
3.909639380314359
 20
43.56877300554085
 10
2.325337916047459
 20
30.66567303420369
 42
0.4142135623730847
 10
2.760676320165543
 20
30.10846528668041
 10
15.66377629150276
 20
28.52416382241352
 42
0.4142135623730834
 10
16.22098403902606
 20
28.95950222653162
  0
LWPOLYLINE
  5
100A2
330
10087
100
AcDbEntity
  8
0
100
AcDbPolyline
 90
        8
 70
     1
 43
0.0
 10
17.98538728337084
 20
47.43216801118071
 10
5.082287312033571
 20
49.01646947544762
 42
-0.4142135623730951
 10
4.646948907915486
 20
49.57367722297087
 10
6.23125037218233
 20
62.47677719430806
 42
-0.4142135623730959
 10
6.788458119705637
 20
62.91211559842613
 10
19.69155809104285
 20
61.32781413415916
 42
-0.4142135623730937
 10
20.12689649516096
 20
60.77060638663599
 10
18.54259503089409
 20
47.86750641529879
 42
-0.4142135623730834
  0
LWPOLYLINE
  5
100A3
330
10087
100
AcDbEntity
  8
0
100
AcDbPolyline
 90
        8
 70
     1
 43
0.0
 10
43.72001219939207
 20
77.06679820955161
 10
42.13571073512514
 20
64.16369823821444
 42
-0.414213562373099
 10
41.57850298760197
 20
63.72835983409632
 10
28.67540301626477
 20
65.31266129836322
 42
-0.4142135623731054
 10
28.24006461214668
 20
65.8698690458865
 10
29.82436607641364
 20
78.77296901722367
 42
-0.4142135623731067
 10
30.38157382393683
 20
79.20830742134175
 10
43.28467379527404
 20
77.62400595707477
 42
-0.4142135623730894
  0
LWPOLYLINE
  5
100A4
330
10087
100
AcDbEntity
  8
0
100
AcDbPolyline
 90
        8
 70
     1
 43
0.0
 10
42.50484681717767
 20
25.73224967648406
 42
0.4142135623730925
 10
42.94018522129573
 20
25.17504192896079
 10
55.84328519263298
 20
23.59074046469391
 42
0.41421356237309
 10
56.40049294015617
 20
24.02607886881198
 10
57.98479440442315
 20
36.92917884014917
 42
0.4142135623730944
 10
57.54945600030507
 20
37.48638658767243
 10
44.64635602896786
 20
39.07068805193932
 42
0.4142135623730903
 10
44.08914828144467
 20
38.63534964782123
  0
LWPOLYLINE
  5
100A5
330
10087
100
AcDbEntity
  8
0
100
AcDbPolyline
 90
        8
 70
     1
 43
0.0
 10
95.98090456203546
 20
37.85552266972497
 10
83.07780459069826
 20
39.4398241339919
 42
-0.41421356237309
 10
82.64246618658015
 20
39.9970318815151
 10
84.22676765084707
 20
52.90013185285229
 42
-0.4142135623731054
 10
84.78397539837038
 20
53.3354702569704
 10
97.68707536970746
 20
51.75116879270348
 42
-0.4142135623730925
 10
98.12241377382555
 20
51.19396104518024
 10
96.53811230955867
 20
38.29086107384306
 42
-0.4142135623730951
  0
LWPOLYLINE
  5
100A6
330
10087
100
AcDbEntity
  8
0
100
AcDbPolyline
 90
        8
 70
     1
 43
0.0
 10
98.38629461735916
 20
18.36711573299075
 10
85.48319464602206
 20
19.95141719725763
 42
-0.414213562373099
 10
85.04785624190395
 20
20.50862494478091
 10
86.63215770617085
 20
33.41172491611811
 42
-0.4142135623730906
 10
87.18936545369416
 20
33.84706332023617
 10
100.0924654250312
 20
32.26276185596929
 42
-0.4142135623730951
 10
100.5278038291494
 20
31.70555410844602
 10
98.94350236488236
 20
18.80245413710883
 42
-0.4142135623730919
  0
LWPOLYLINE
  5
100A7
330
10087
100
AcDbEntity
  8
0
100
AcDbPolyline
 90
        8
 70
     1
 43
0.0
 10
63.73446199781295
 20
42.31864287338317
 10
65.31876346207983
 20
55.22174284472036
 42
-0.4142135623731004
 10
65.87597120960317
 20
55.65708124883846
 10
78.77907118094026
 20
54.07277978457155
 42
-0.4142135623730919
 10
79.21440958505835
 20
53.51557203704831
 10
77.63010812079148
 20
40.61247206571111
 42
-0.4142135623730949
 10
77.07290037326817
 20
40.177133661593
 10
64.16980040193107
 20
41.76143512585992
 42
-0.4142135623730944
  0
LWPOLYLINE
  5
100A8
330
10087
100
AcDbEntity
  8
0
100
AcDbPolyline
 90
        8
 70
     1
 43
0.0
 10
63.55436021773508
 20
36.74907706007125
 42
0.4142135623730922
 10
62.99715247021183
 20
36.31373865595318
 10
61.41285100594496
 20
23.41063868461599
 42
0.4142135623730944
 10
61.84818941006307
 20
22.85343093709274
 10
74.75128938140016
 20
21.26912947282583
 42
0.4142135623731047
 10
75.30849712892337
 20
21.70446787694394
 10
76.89279859319035
 20
34.60756784828112
 42
0.4142135623730959
 10
76.45746018907215
 20
35.16477559580436
  0
LWPOLYLINE
  5
100A9
330
10087
100
AcDbEntity
  8
0
100
AcDbPolyline
 90
       20
 70
     1
 43
0.0
 10
194.4370325267887
 20
46.03517972772749
 10
194.6198365418965
 20
44.54636050026539
 42
-0.4142135623730784
 10
194.1844981377784
 20
43.98915275274217
 10
188.2292212279305
 20
43.25793669231128
 42
-0.4142135623730743
 10
187.6720134804074
 20
43.69327509642937
 10
187.4892094652996
 20
45.18209432389144
 10
184.5430843506902
 20
44.82035564532914
 42
-0.4142135623731067
 10
183.985876603167
 20
45.25569404944721
 10
182.4015751389
 20
58.1587940207844
 42
-0.414213562373076
 10
182.8369135430181
 20
58.71600176830763
 10
217.0115182267183
 20
62.91211559842613
 42
-0.4142135623731094
 10
217.5687259742417
 20
62.47677719430804
 10
219.1530274385085
 20
49.57367722297084
 42
-0.4142135623730943
 10
218.7176890343904
 20
49.01646947544762
 10
218.1350644433772
 20
48.94493217086882
 10
218.317868458485
 20
47.45611294340672
 42
-0.4142135623730976
 10
217.8825300543669
 20
46.89890519588345
 10
211.927253144519
 20
46.16768913545258
 42
-0.4142135623730951
 10
211.3700453969958
 20
46.60302753957069
 10
211.187241381888
 20
48.09184676703278
  0
CIRCLE
  5
100AA
330
10087
100
AcDbEntity
  8
0
100
AcDbCircle
 10
111.899988173212
 20
39.96751253386789
 30
0.0
 40
4.5
  0
LWPOLYLINE
  5
100AB
330
10087
100
AcDbEntity
  8
0
100
AcDbPolyline
 90
       20
 70
     1
 43
0.0
 10
99.83465634925515
 20
0.0037269241893316
 42
0.41421356237309
 10
100.3918640967671
 20
0.439065328298605
 10
102.0980349044492
 20
14.33471145127592
 42
0.4142135623731054
 10
101.6626965003311
 20
14.89191919879917
 10
93.34391906688747
 20
15.91333663321359
 42
0.4142135623731054
 10
92.78671131936416
 20
15.47799822909548
 10
92.60390730425646
 20
13.98917900163343
 10
78.21719897275315
 20
15.75564466695522
 10
78.40000298786086
 20
17.24446389441727
 42
0.4142135623730951
 10
77.96466458374277
 20
17.80167164194051
 10
69.64588715029896
 20
18.82308907635491
 42
0.4142135623731004
 10
69.08867940277577
 20
18.38775067223682
 10
67.38250859510376
 20
4.492104549258252
 42
0.41421356237309
 10
67.81784699922176
 20
3.93489680173503
 10
75.69667835095194
 20
2.967497953794954
 10
75.63574367924815
 20
2.471224877964254
 42
0.4142135623730959
 10
76.07108208336615
 20
1.914017130441006
 10
91.33768257829926
 20
0.0395142921905833
 42
0.4142135623730959
 10
91.89489032582256
 20
0.4748526963086684
 10
91.95582499752637
 20
0.9711257721394112
  0
LWPOLYLINE
  5
100AC
330
10087
100
AcDbEntity
  8
0
100
AcDbPolyline
 90
       20
 70
     1
 43
0.0
 10
147.7288942630578
 20
1.914017130441006
 10
132.4622937681247
 20
0.0395142921905833
 42
-0.4142135623730847
 10
131.9050860206015
 20
0.4748526963086684
 10
131.8441513488977
 20
0.9711257721394112
 10
123.96531999717
 20
0.0037269241793418
 42
-0.4142135623730951
 10
123.4081122496468
 20
0.4390653282973834
 10
121.7019414419747
 20
14.33471145127594
 42
-0.4142135623730951
 10
122.1372798460928
 20
14.89191919879917
 10
130.4560572795366
 20
15.91333663321357
 42
-0.41421356237309
 10
131.0132650270598
 20
15.47799822909547
 10
131.1960690421675
 20
13.98917900163342
 10
145.5827773736709
 20
15.75564466695524
 10
145.3999733585631
 20
17.24446389441726
 42
-0.4142135623730951
 10
145.8353117626812
 20
17.80167164194051
 10
154.154089196125
 20
18.8230890763549
 42
-0.4142135623730951
 10
154.7112969436482
 20
18.38775067223681
 10
156.4174677513103
 20
4.492104549257001
 42
-0.4142135623730951
 10
155.982129347201
 20
3.934896801745047
 10
148.1032979954721
 20
2.967497953794984
 10
148.1642326671759
 20
2.471224877964254
 42
-0.4142135623730951
  0
LWPOLYLINE
  5
100AD
330
10087
100
AcDbEntity
  8
0
100
AcDbPolyline
 90
        8
 70
     1
 43
0.0
 10
85.04785624190395
 20
20.50862494478091
 42
0.414213562373099
 10
85.48319464602206
 20
19.95141719725767
 10
98.38629461735916
 20
18.36711573299075
 42
0.4142135623730919
 10
98.94350236488246
 20
18.80245413710883
 10
100.5278038291494
 20
31.70555410844602
 42
0.4142135623730951
 10
100.0924654250312
 20
32.26276185596929
 10
87.18936545369416
 20
33.84706332023617
 42
0.4142135623730906
 10
86.63215770617085
 20
33.41172491611811
  0
LWPOLYLINE
  5
100AE
330
10087
100
AcDbEntity
  8
0
100
AcDbPolyline
 90
        8
 70
     1
 43
0.0
 10
62.62801638815924
 20
74.74518721768355
 10
61.04371492389237
 20
61.84208724634636
 42
-0.4142135623730798
 10
60.48650717636917
 20
61.40674884222828
 10
47.58340720503198
 20
62.99105030649516
 42
-0.4142135623730996
 10
47.14806880091384
 20
63.54825805401844
 10
48.73237026518075
 20
76.4513580253556
 42
-0.4142135623731004
 10
49.28957801270397
 20
76.88669642947371
 10
62.19267798404115
 20
75.3023949652068
 42
-0.4142135623730951
  0
LWPOLYLINE
  5
100AF
330
10087
100
AcDbEntity
  8
0
100
AcDbPolyline
 90
        8
 70
     1
 43
0.0
 10
127.2618640368654
 20
38.29086107384305
 10
125.6775625725985
 20
51.19396104518024
 42
-0.4142135623730959
 10
126.1129009767166
 20
51.75116879270348
 10
139.0160009480537
 20
53.33547025697039
 42
-0.4142135623730976
 10
139.573208695577
 20
52.9001318528523
 10
141.1575101598439
 20
39.99703188151512
 42
-0.4142135623730966
 10
140.7221717557258
 20
39.43982413399186
 10
127.8190717843887
 20
37.85552266972495
 42
-0.4142135623730951
  0
LWPOLYLINE
  5
100B0
330
10087
100
AcDbEntity
  8
0
100
AcDbPolyline
 90
        8
 70
     1
 43
0.0
 10
87.32757770204406
 20
58.61483469629882
 10
88.91187916631094
 20
71.51793466763599
 42
-0.41421356237309
 10
89.46908691383425
 20
71.9532730717541
 10
102.3721868851714
 20
70.36897160748718
 42
-0.4142135623730951
 10
102.8075252892895
 20
69.81176385996395
 10
101.2232238250226
 20
56.90866388862674
 42
-0.4142135623730955
 10
100.6660160774992
 20
56.47332548450864
 10
87.76291610616215
 20
58.05762694877556
 42
-0.4142135623730931
  0
LWPOLYLINE
  5
100B1
330
10087
100
AcDbEntity
  8
0
100
AcDbPolyline
 90
        8
 70
     1
 43
0.0
 10
181.6642656112988
 20
64.16369823821439
 10
180.079964147032
 20
77.06679820955159
 42
-0.4142135623730995
 10
180.5153025511501
 20
77.62400595707484
 10
193.4184025224872
 20
79.20830742134175
 42
-0.4142135623731106
 10
193.9756102700105
 20
78.77296901722366
 10
195.5599117342774
 20
65.86986904588647
 42
-0.4142135623731066
 10
195.1245733301593
 20
65.31266129836322
 10
182.2214733588222
 20
63.72835983409629
 42
-0.4142135623730887
  0
LWPOLYLINE
  5
100B2
330
10087
100
AcDbEntity
  8
0
100
AcDbPolyline
 90
        8
 70
     1
 43
0.0
 10
143.8482572337646
 20
59.52047625447829
 42
0.414213562373099
 10
144.4054649812878
 20
59.08513785036022
 10
157.3085649526249
 20
60.66943931462712
 42
0.4142135623731057
 10
157.743903356743
 20
61.22664706215036
 10
156.1596018924761
 20
74.12974703348755
 42
0.4142135623730873
 10
155.6023941449529
 20
74.56508543760564
 10
142.6992941736157
 20
72.98078397333871
 42
0.4142135623730939
 10
142.2639557694976
 20
72.42357622581552
  0
LWPOLYLINE
  5
100B3
330
10087
100
AcDbEntity
  8
0
100
AcDbPolyline
 90
        8
 70
     1
 43
0.0
 10
122.5767525214016
 20
56.90866388862676
 10
120.9924510571346
 20
69.81176385996393
 42
-0.4142135623730957
 10
121.4277894612527
 20
70.36897160748718
 10
134.3308894325899
 20
71.95327307175411
 42
-0.4142135623730912
 10
134.8880971801131
 20
71.51793466763599
 10
136.47239864438
 20
58.61483469629882
 42
-0.4142135623731057
 10
136.0370602402619
 20
58.05762694877557
 10
123.1339602689248
 20
56.47332548450864
 42
-0.4142135623730874
  0
LWPOLYLINE
  5
100B4
330
10087
100
AcDbEntity
  8
0
100
AcDbPolyline
 90
        8
 70
     1
 43
0.0
 10
46.96796702083585
 20
57.97869224070652
 42
0.4142135623731004
 10
46.41075927331266
 20
57.54335383658842
 10
44.82645780904576
 20
44.64025386525125
 42
0.4142135623730983
 10
45.26179621316384
 20
44.08304611772801
 10
58.16489618450106
 20
42.49874465346108
 42
0.4142135623730999
 10
58.72210393202426
 20
42.93408305757917
 10
60.30640539629115
 20
55.83718302891636
 42
0.4142135623730959
 10
59.87106699217315
 20
56.39439077643962
  0
LWPOLYLINE
  5
100B5
330
10087
100
AcDbEntity
  8
0
100
AcDbPolyline
 90
        8
 70
     1
 43
0.0
 10
84.78397539837038
 20
53.3354702569704
 42
0.4142135623731054
 10
84.22676765084707
 20
52.90013185285229
 10
82.64246618658015
 20
39.9970318815151
 42
0.41421356237309
 10
83.07780459069826
 20
39.4398241339919
 10
95.98090456203546
 20
37.85552266972497
 42
0.4142135623730951
 10
96.53811230955867
 20
38.29086107384306
 10
98.12241377382555
 20
51.19396104518024
 42
0.4142135623730925
 10
97.68707536970746
 20
51.75116879270348
  0
LWPOLYLINE
  5
100B6
330
10087
100
AcDbEntity
  8
0
100
AcDbPolyline
 90
        8
 70
     1
 43
0.0
 10
41.39840120752396
 20
58.15879402078444
 42
0.4142135623730944
 10
40.96306280340598
 20
58.7160017683076
 10
28.05996283206875
 20
60.30030323257457
 42
0.4142135623731062
 10
27.50275508454547
 20
59.86496482845647
 10
25.91845362027857
 20
46.96186485711931
 42
0.4142135623730913
 10
26.35379202439665
 20
46.40465710959609
 10
39.25689199573387
 20
44.82035564532913
 42
0.4142135623730993
 10
39.81409974325714
 20
45.25569404944724
  0
LWPOLYLINE
  5
100B7
330
10087
100
AcDbEntity
  8
0
100
AcDbPolyline
 90
        8
 70
     1
 43
0.0
 10
81.53602057692646
 20
72.42357622581552
 10
79.95171911265956
 20
59.52047625447829
 42
-0.4142135623730944
 10
79.39451136513625
 20
59.08513785036021
 10
66.49141139379915
 20
60.6694393146271
 42
-0.4142135623731004
 10
66.05607298968107
 20
61.22664706215037
 10
67.64037445394797
 20
74.12974703348756
 42
-0.41421356237309
 10
68.19758220147116
 20
74.56508543760564
 10
81.10068217280838
 20
72.98078397333874
 42
-0.4142135623730977
  0
LWPOLYLINE
  5
100B8
330
10087
100
AcDbEntity
  8
0
100
AcDbPolyline
 90
        8
 70
     1
 43
0.0
 10
76.89279859319035
 20
34.60756784828112
 10
75.30849712892337
 20
21.70446787694394
 42
-0.4142135623731047
 10
74.75128938140016
 20
21.26912947282583
 10
61.84818941006307
 20
22.85343093709274
 42
-0.4142135623730944
 10
61.41285100594496
 20
23.41063868461599
 10
62.99715247021183
 20
36.31373865595318
 42
-0.4142135623730922
 10
63.55436021773508
 20
36.74907706007125
 10
76.45746018907226
 20
35.16477559580437
 42
-0.4142135623730959
  0
LWPOLYLINE
  5
100B9
330
10087
100
AcDbEntity
  8
0
100
AcDbPolyline
 90
        8
 70
     1
 43
0.0
 10
123.7075109213928
 20
32.26276185596927
 10
136.61061089273
 20
33.84706332023619
 42
-0.4142135623730912
 10
137.1678186402532
 20
33.41172491611808
 10
138.7521201045201
 20
20.5086249447809
 42
-0.4142135623730944
 10
138.3167817004021
 20
19.95141719725766
 10
125.4136817290649
 20
18.36711573299073
 42
-0.4142135623730906
 10
124.8564739815417
 20
18.80245413710883
 10
123.2721725172748
 20
31.70555410844602
 42
-0.4142135623730944
  0
LWPOLYLINE
  5
100BA
330
10087
100
AcDbEntity
  8
0
100
AcDbPolyline
 90
        8
 70
     1
 43
0.0
 10
62.75368498334277
 20
17.15057052943147
 10
61.16938351907584
 20
4.247470558094272
 42
-0.4142135623730951
 10
60.61217577155258
 20
3.812132153976186
 10
45.34557527661957
 20
5.686634992226624
 42
-0.4142135623730959
 10
44.91023687250148
 20
6.243842739749874
 10
46.49453833676836
 20
19.14694271108704
 42
-0.4142135623730951
 10
47.05174608429155
 20
19.58228111520513
 10
62.31834657922465
 20
17.70777827695469
 42
-0.4142135623730951
  0
LWPOLYLINE
  5
100BB
330
10087
100
AcDbEntity
  8
0
100
AcDbPolyline
 90
        8
 70
     1
 43
0.0
 10
44.64635602896786
 20
39.07068805193932
 10
57.54945600030507
 20
37.48638658767244
 42
-0.4142135623730944
 10
57.98479440442315
 20
36.92917884014917
 10
56.40049294015617
 20
24.02607886881198
 42
-0.41421356237309
 10
55.84328519263298
 20
23.59074046469391
 10
42.94018522129573
 20
25.17504192896079
 42
-0.4142135623730925
 10
42.50484681717767
 20
25.73224967648406
 10
44.08914828144467
 20
38.63534964782123
 42
-0.4142135623730903
  0
LWPOLYLINE
  5
100BC
330
10087
100
AcDbEntity
  8
0
100
AcDbPolyline
 90
        8
 70
     1
 43
0.0
 10
176.2165691413921
 20
62.99105030649519
 42
0.4142135623730966
 10
176.6519075455102
 20
63.54825805401841
 10
175.0676060812433
 20
76.4513580253556
 42
0.4142135623730887
 10
174.5103983337201
 20
76.8866964294737
 10
161.6072983623829
 20
75.30239496520677
 42
0.4142135623730944
 10
161.1719599582648
 20
74.74518721768352
 10
162.7562614225317
 20
61.84208724634636
 42
0.4142135623730939
 10
163.313469170055
 20
61.40674884222826
  0
LWPOLYLINE
  5
100BD
330
10087
100
AcDbEntity
  8
0
100
AcDbPolyline
 90
        8
 70
     1
 43
0.0
 10
161.9517869363611
 20
22.85343093709274
 42
0.4142135623731054
 10
162.3871253404791
 20
23.41063868461598
 10
160.8028238762122
 20
36.31373865595314
 42
0.41421356237309
 10
160.245616128689
 20
36.74907706007125
 10
147.3425161573519
 20
35.16477559580435
 42
0.4142135623730951
 10
146.9071777532338
 20
34.60756784828111
 10
148.4914792175007
 20
21.70446787694393
 42
0.4142135623731004
 10
149.0486869650239
 20
21.26912947282584
  0
LWPOLYLINE
  5
100BE
330
10087
100
AcDbEntity
  8
0
100
AcDbPolyline
 90
        8
 70
     1
 43
0.0
 10
63.73446199781295
 20
42.31864287338317
 10
65.31876346207983
 20
55.22174284472036
 42
-0.4142135623731004
 10
65.87597120960317
 20
55.65708124883846
 10
78.77907118094026
 20
54.07277978457155
 42
-0.4142135623730919
 10
79.21440958505835
 20
53.51557203704831
 10
77.63010812079136
 20
40.61247206571111
 42
-0.4142135623730949
 10
77.07290037326817
 20
40.177133661593
 10
64.16980040193107
 20
41.76143512585992
 42
-0.4142135623730944
  0
LWPOLYLINE
  5
100BF
330
10087
100
AcDbEntity
  8
0
100
AcDbPolyline
 90
        8
 70
     1
 43
0.0
 10
0.0037269241793467
 20
11.75766884543651
 42
0.4142135623730906
 10
0.4390653282974882
 20
11.20046109791326
 10
13.34216529963464
 20
9.616159633646338
 42
0.4142135623730943
 10
13.89937304715784
 20
10.05149803776443
 10
15.48367451142474
 20
22.95459800910162
 42
0.4142135623730951
 10
15.04833610730665
 20
23.51180575662484
 10
2.145236135969469
 20
25.09610722089177
 42
0.4142135623730951
 10
1.588028388446275
 20
24.66076881677369
  0
LWPOLYLINE
  5
100C0
330
10087
100
AcDbEntity
  8
0
100
AcDbPolyline
 90
       20
 70
     1
 43
0.0
 10
187.6720134804074
 20
43.69327509642937
 42
0.4142135623730743
 10
188.2292212279305
 20
43.25793669231128
 10
194.1844981377784
 20
43.98915275274217
 42
0.4142135623730784
 10
194.6198365418965
 20
44.54636050026539
 10
194.4370325267887
 20
46.03517972772749
 10
211.187241381888
 20
48.09184676703278
 10
211.3700453969958
 20
46.60302753957069
 42
0.4142135623730951
 10
211.927253144519
 20
46.16768913545258
 10
217.8825300543669
 20
46.89890519588345
 42
0.4142135623730976
 10
218.317868458485
 20
47.45611294340672
 10
218.1350644433772
 20
48.94493217086882
 10
218.7176890343904
 20
49.01646947544762
 42
0.4142135623730943
 10
219.1530274385085
 20
49.57367722297084
 10
217.5687259742417
 20
62.47677719430804
 42
0.4142135623731094
 10
217.0115182267183
 20
62.91211559842611
 10
182.8369135430181
 20
58.71600176830763
 42
0.414213562373076
 10
182.4015751389001
 20
58.1587940207844
 10
183.985876603167
 20
45.25569404944721
 42
0.4142135623731067
 10
184.5430843506902
 20
44.82035564532911
 10
187.4892094652996
 20
45.18209432389144
  0
LWPOLYLINE
  5
100C1
330
10087
100
AcDbEntity
  8
0
100
AcDbPolyline
 90
        8
 70
     1
 43
0.0
 10
186.4382945505358
 20
7.149484297929328
 42
0.4142135623730635
 10
186.9955022980589
 20
6.714145893811259
 10
199.8986022693961
 20
8.29844735807816
 42
0.4142135623730996
 10
200.3339406735143
 20
8.855655105601389
 10
198.7496392092473
 20
21.7587550769386
 42
0.41421356237309
 10
198.192431461724
 20
22.19409348105667
 10
185.2893314903868
 20
20.60979201678976
 42
0.4142135623731066
 10
184.8539930862688
 20
20.05258426926653
  0
LWPOLYLINE
  5
100C2
330
10087
100
AcDbEntity
  8
0
100
AcDbPolyline
 90
        8
 70
     1
 43
0.0
 10
177.3892170731114
 20
57.5433538365884
 42
0.4142135623731144
 10
176.8320093255881
 20
57.97869224070649
 10
163.928909354251
 20
56.39439077643959
 42
0.4142135623730955
 10
163.4935709501329
 20
55.83718302891636
 10
165.0778724143998
 20
42.93408305757915
 42
0.4142135623730976
 10
165.635080161923
 20
42.49874465346107
 10
178.5381801332602
 20
44.08304611772797
 42
0.414213562373102
 10
178.9735185373784
 20
44.64025386525122
  0
LWPOLYLINE
  5
100C3
330
10087
100
AcDbEntity
  8
0
100
AcDbPolyline
 90
        8
 70
     1
 43
0.0
 10
209.9006032992662
 20
10.0514980377644
 42
0.4142135623731062
 10
210.4578110467894
 20
9.61615963364631
 10
223.3609110181267
 20
11.20046109791323
 42
0.4142135623730789
 10
223.7962494222447
 20
11.75766884543648
 10
222.2119479579778
 20
24.66076881677367
 42
0.4142135623731094
 10
221.6547402104545
 20
25.09610722089177
 10
208.7516402391174
 20
23.51180575662483
 42
0.4142135623730841
 10
208.3163018349993
 20
22.9545980091016
  0
LWPOLYLINE
  5
100C4
330
10087
100
AcDbEntity
  8
0
100
AcDbPolyline
 90
        8
 70
     1
 43
0.0
 10
177.3054380096557
 20
19.146942711087
 10
178.8897394739227
 20
6.24384273974986
 42
-0.4142135623730847
 10
178.4544010698045
 20
5.686634992226609
 10
163.1878005748714
 20
3.812132153976173
 42
-0.4142135623730951
 10
162.6305928273482
 20
4.247470558094256
 10
161.0462913630812
 20
17.15057052943144
 42
-0.41421356237309
 10
161.4816297671994
 20
17.70777827695469
 10
176.7482302621324
 20
19.58228111520512
 42
-0.4142135623731118
  0
LWPOLYLINE
  5
100C5
330
10087
100
AcDbEntity
  8
0
100
AcDbPolyline
 90
        8
 70
     1
 43
0.0
 10
23.63873216013835
 20
8.855655105601417
 42
0.4142135623730912
 10
24.07407056425646
 20
8.298447358078179
 10
36.97717053559367
 20
6.714145893811268
 42
0.4142135623730951
 10
37.53437828311687
 20
7.14948429792936
 10
39.11867974738377
 20
20.05258426926655
 42
0.4142135623730951
 10
38.68334134326568
 20
20.60979201678978
 10
25.78024137192855
 20
22.19409348105671
 42
0.4142135623731056
 10
25.22303362440525
 20
21.7587550769386
  0
LWPOLYLINE
  5
100C6
330
10087
100
AcDbEntity
  8
0
100
AcDbPolyline
 90
        8
 70
     1
 43
0.0
 10
43.72001219939207
 20
77.06679820955161
 42
0.4142135623730894
 10
43.28467379527404
 20
77.62400595707484
 10
30.38157382393683
 20
79.20830742134175
 42
0.4142135623731067
 10
29.82436607641356
 20
78.7729690172237
 10
28.24006461214668
 20
65.8698690458865
 42
0.4142135623731054
 10
28.67540301626477
 20
65.31266129836322
 10
41.57850298760197
 20
63.72835983409632
 42
0.414213562373099
 10
42.13571073512514
 20
64.16369823821444
  0
LWPOLYLINE
  5
100C7
330
10087
100
AcDbEntity
  8
0
100
AcDbPolyline
 90
        8
 70
     1
 43
0.0
 10
25.73835184020075
 20
41.39229904380737
 10
38.64145181153796
 20
39.8079975795404
 42
-0.4142135623730943
 10
39.07679021565596
 20
39.25078983201723
 10
37.49248875138909
 20
26.34768986068007
 42
-0.414213562373099
 10
36.93528100386584
 20
25.91235145656195
 10
24.03218103252868
 20
27.49665292082887
 42
-0.4142135623731054
 10
23.59684262841057
 20
28.05386066835213
 10
25.1811440926775
 20
40.9569606396893
 42
-0.414213562373105
  0
LWPOLYLINE
  5
100C8
330
10087
100
AcDbEntity
  8
0
100
AcDbPolyline
 90
        8
 70
     1
 43
0.0
 10
159.630175944493
 20
41.76143512585993
 10
146.7270759731559
 20
40.17713366159303
 42
-0.4142135623730976
 10
146.1698682256327
 20
40.61247206571111
 10
144.5855667613657
 20
53.51557203704828
 42
-0.4142135623730955
 10
145.0209051654838
 20
54.07277978457153
 10
157.924005136821
 20
55.65708124883845
 42
-0.414213562373099
 10
158.4812128843442
 20
55.22174284472033
 10
160.0655143486111
 20
42.31864287338317
 42
-0.4142135623730951
  0
LWPOLYLINE
  5
100C9
330
10087
100
AcDbEntity
  8
0
100
AcDbPolyline
 90
        8
 70
     1
 43
0.0
 10
17.98538728337084
 20
47.43216801118071
 10
5.082287312033571
 20
49.01646947544762
 42
-0.4142135623730951
 10
4.646948907915486
 20
49.57367722297087
 10
6.23125037218233
 20
62.47677719430806
 42
-0.4142135623730959
 10
6.788458119705637
 20
62.91211559842613
 10
19.69155809104285
 20
61.32781413415916
 42
-0.4142135623730937
 10
20.12689649516096
 20
60.77060638663599
 10
18.54259503089409
 20
47.86750641529879
 42
-0.4142135623730834
  0
LWPOLYLINE
  5
100CA
330
10087
100
AcDbEntity
  8
0
100
AcDbPolyline
 90
        8
 70
     1
 43
0.0
 10
9.110069111573693
 20
81.82011978719335
 10
22.01316908291091
 20
80.2358183229264
 42
-0.4142135623730925
 10
22.44850748702899
 20
79.67861057540317
 10
20.86420602276215
 20
66.77551060406601
 42
-0.4142135623730939
 10
20.30699827523898
 20
66.3401721999479
 10
7.403898303901655
 20
67.92447366421477
 42
-0.4142135623730847
 10
6.968559899783571
 20
68.48168141173805
 10
8.552861364050471
 20
81.38478138307526
 42
-0.4142135623730963
  0
LWPOLYLINE
  5
100CB
330
10087
100
AcDbEntity
  8
0
100
AcDbPolyline
 90
        8
 70
     1
 43
0.0
 10
167.3994834062679
 20
24.02607886881196
 42
0.4142135623730951
 10
167.9566911537911
 20
23.59074046469389
 10
180.8597911251283
 20
25.1750419289608
 42
0.4142135623731042
 10
181.2951295292464
 20
25.73224967648404
 10
179.7108280649794
 20
38.63534964782122
 42
0.41421356237309
 10
179.1536203174563
 20
39.0706880519393
 10
166.250520346119
 20
37.4863865876724
 42
0.4142135623730943
 10
165.8151819420009
 20
36.92917884014917
  0
LWPOLYLINE
  5
100CC
330
10087
100
AcDbEntity
  8
0
100
AcDbPolyline
 90
        8
 70
     1
 43
0.0
 10
4.466847127837667
 20
44.00411140965895
 10
17.36994709917482
 20
42.41980994539197
 42
-0.4142135623731004
 10
17.80528550329285
 20
41.8626021978688
 10
16.22098403902606
 20
28.95950222653162
 42
-0.4142135623730834
 10
15.66377629150276
 20
28.52416382241352
 10
2.760676320165543
 20
30.10846528668041
 42
-0.4142135623730847
 10
2.325337916047459
 20
30.66567303420369
 10
3.909639380314359
 20
43.56877300554085
 42
-0.4142135623731155
  0
LWPOLYLINE
  5
100CD
330
10087
100
AcDbEntity
  8
0
100
AcDbPolyline
 90
        8
 70
     1
 43
0.0
 10
199.7677953138954
 20
27.49665292082886
 10
186.8646953425582
 20
25.91235145656192
 42
-0.4142135623731106
 10
186.307487595035
 20
26.34768986068003
 10
184.7231861307681
 20
39.25078983201721
 42
-0.4142135623730966
 10
185.1585245348862
 20
39.80799757954044
 10
198.0616245062233
 20
41.39229904380736
 42
-0.4142135623731081
 10
198.6188322537467
 20
40.95696063968928
 10
200.2031337180135
 20
28.05386066835211
 42
-0.4142135623731042
  0
CIRCLE
  5
100CE
330
10087
100
AcDbEntity
  8
0
100
AcDbCircle
 10
111.899988173212
 20
39.96751253386789
 30
0.0
 40
4.5
  0
LWPOLYLINE
  5
100CF
330
10087
100
AcDbEntity
  8
0
100
AcDbPolyline
 90
        8
 70
     1
 43
0.0
 10
206.4300292472493
 20
42.419809945392
 10
219.3331292185864
 20
44.00411140965893
 42
-0.414213562373117
 10
219.8903369661097
 20
43.56877300554082
 10
221.4746384303767
 20
30.66567303420366
 42
-0.4142135623730809
 10
221.0393000262585
 20
30.10846528668043
 10
208.1362000549213
 20
28.5241638224135
 42
-0.41421356237309
 10
207.5789923073981
 20
28.9595022265316
 10
205.9946908431312
 20
41.86260219786875
 42
-0.4142135623731071
  0
LWPOLYLINE
  5
100D0
330
10087
100
AcDbEntity
  8
0
100
AcDbPolyline
 90
        8
 70
     1
 43
0.0
 10
216.3960780425224
 20
67.92447366421481
 10
203.4929780711852
 20
66.34017219994787
 42
-0.41421356237309
 10
202.935770323662
 20
66.77551060406599
 10
201.351468859395
 20
79.67861057540315
 42
-0.4142135623731047
 10
201.7868072635131
 20
80.2358183229264
 10
214.6899072348503
 20
81.82011978719334
 42
-0.4142135623731054
 10
215.2471149823736
 20
81.38478138307524
 10
216.8314164466405
 20
68.48168141173802
 42
-0.4142135623730815
  0
ENDBLK
  5
100D2
330
10087
100
AcDbEntity
  8
0
100
AcDbBlockEnd
  0
ENDSEC
  0
SECTION
  2
ENTITIES
  0
LWPOLYLINE
  5
102
330
1F
100
AcDbEntity
  8
0
100
AcDbPolyline
 90
       20
 70
     1
 43
0.0
 10
-81.27428761789891
 20
181.1028923415105
 10
-89.15311896962656
 20
180.1354934935504
 42
-0.4142135623730951
 10
-89.71032671714979
 20
180.5708318976685
 10
-91.41649752482187
 20
194.466478020647
 42
-0.4142135623730951
 10
-90.9811591207038
 20
195.0236857681703
 10
-82.66238168726001
 20
196.0451032025846
 42
-0.41421356237309
 10
-82.10517393973677
 20
195.6097647984666
 10
-81.92236992462905
 20
194.1209455710045
 10
-67.53566159312566
 20
195.8874112363263
 10
-67.71846560823346
 20
197.3762304637883
 42
-0.4142135623730951
 10
-67.28312720411537
 20
197.9334382113116
 10
-58.96434977067162
 20
198.954855645726
 42
-0.4142135623730951
 10
-58.40714202314838
 20
198.5195172416079
 10
-56.70097121548632
 20
184.6238711186281
 42
-0.4142135623730951
 10
-57.13630961959562
 20
184.0666633711161
 10
-65.01514097132448
 20
183.0992645231661
 10
-64.95420629962066
 20
182.6029914473353
 42
-0.4142135623730951
 10
-65.38954470373878
 20
182.0457836998121
 10
-80.65614519867187
 20
180.1712808615617
 42
-0.4142135623730847
 10
-81.21335294619507
 20
180.6066192656798
  0
LWPOLYLINE
  5
103
330
1F
100
AcDbEntity
  8
0
100
AcDbPolyline
 90
       20
 70
     1
 43
0.0
 10
-113.2837826175414
 20
180.1354934935604
 10
-121.1626139692702
 20
181.1028923415105
 10
-121.2235486409741
 20
180.6066192656798
 42
-0.4142135623730959
 10
-121.7807563884973
 20
180.1712808615617
 10
-137.0473568834304
 20
182.0457836998121
 42
-0.4142135623730959
 10
-137.4826952875484
 20
182.6029914473353
 10
-137.4217606158447
 20
183.099264523166
 10
-145.3005919675748
 20
184.0666633711061
 42
-0.41421356237309
 10
-145.7359303716928
 20
184.6238711186293
 10
-144.0297595640208
 20
198.5195172416079
 42
-0.4142135623731004
 10
-143.4725518164976
 20
198.954855645726
 10
-135.1537743830538
 20
197.9334382113116
 42
-0.4142135623730951
 10
-134.7184359789357
 20
197.3762304637883
 10
-134.9012399940434
 20
195.8874112363263
 10
-120.5145316625401
 20
194.1209455710045
 10
-120.3317276474324
 20
195.6097647984666
 42
-0.4142135623731054
 10
-119.7745198999091
 20
196.0451032025847
 10
-111.4557424664654
 20
195.0236857681703
 42
-0.4142135623731054
 10
-111.0204040623473
 20
194.466478020647
 10
-112.7265748700295
 20
180.5708318976697
 42
-0.41421356237309
  0
LWPOLYLINE
  5
104
330
1F
100
AcDbEntity
  8
0
100
AcDbPolyline
 90
        8
 70
     1
 43
0.0
 10
-187.338197594868
 20
202.3258600504278
 10
-174.4350976235309
 20
200.7415585861608
 42
-0.4142135623730951
 10
-173.9997592194128
 20
200.1843508386377
 10
-175.5840606836797
 20
187.2812508673004
 42
-0.4142135623730951
 10
-176.1412684312029
 20
186.8459124631824
 10
-189.0443684025401
 20
188.4302139274493
 42
-0.4142135623730912
 10
-189.4797068066582
 20
188.9874216749725
 10
-187.8954053423914
 20
201.8905216463097
 42
-0.4142135623731056
  0
LWPOLYLINE
  5
105
330
1F
100
AcDbEntity
  8
0
100
AcDbPolyline
 90
        8
 70
     1
 43
0.0
 10
-13.21983669740049
 20
188.4302139274493
 10
-26.12293666873774
 20
186.8459124631824
 42
-0.4142135623730635
 10
-26.68014441626085
 20
187.2812508673004
 10
-28.26444588052787
 20
200.1843508386376
 42
-0.4142135623731066
 10
-27.82910747640978
 20
200.7415585861608
 10
-14.92600750507256
 20
202.3258600504278
 42
-0.41421356237309
 10
-14.36879975754934
 20
201.8905216463097
 10
-12.78449829328235
 20
188.9874216749725
 42
-0.4142135623730996
  0
LWPOLYLINE
  5
106
330
1F
100
AcDbEntity
  8
0
100
AcDbPolyline
 90
        8
 70
     1
 43
0.0
 10
-152.506263195244
 20
183.9438987233473
 42
0.4142135623730951
 10
-151.9490554477208
 20
184.3792371274653
 10
-150.3647539834538
 20
197.2823370988026
 42
0.4142135623730951
 10
-150.8000923875719
 20
197.8395448463258
 10
-166.066692882505
 20
199.7140476845762
 42
0.4142135623730951
 10
-166.6239006300282
 20
199.2787092804581
 10
-168.2082020942951
 20
186.3756093091209
 42
0.4142135623730959
 10
-167.772863690177
 20
185.8184015615977
  0
LWPOLYLINE
  5
107
330
1F
100
AcDbEntity
  8
0
100
AcDbPolyline
 90
        8
 70
     1
 43
0.0
 10
10.24247205133005
 20
191.3322276672843
 10
-2.660627920007186
 20
189.7479262030174
 42
-0.4142135623731062
 10
-3.217835667530436
 20
190.1832646071355
 10
-4.802137131797308
 20
203.0863645784727
 42
-0.4142135623730841
 10
-4.366798727679224
 20
203.6435723259959
 10
8.536301243657874
 20
205.2278737902629
 42
-0.4142135623731094
 10
9.093508991181202
 20
204.7925353861448
 10
10.67781045544805
 20
191.8894354148076
 42
-0.4142135623730789
  0
LWPOLYLINE
  5
108
330
1F
100
AcDbEntity
  8
0
100
AcDbPolyline
 90
        8
 70
     1
 43
0.0
 10
-51.63680919959723
 20
197.8395448463258
 42
0.41421356237309
 10
-52.07214760371535
 20
197.2823370988025
 10
-50.48784613944837
 20
184.3792371274653
 42
0.4142135623730951
 10
-49.93063839192518
 20
183.9438987233473
 10
-34.66403789699206
 20
185.8184015615977
 42
0.4142135623730847
 10
-34.22869949287394
 20
186.3756093091209
 10
-35.81300095714091
 20
199.2787092804581
 42
0.4142135623731118
 10
-36.37020870466416
 20
199.7140476845762
  0
LWPOLYLINE
  5
109
330
1F
100
AcDbEntity
  8
0
100
AcDbPolyline
 90
        8
 70
     1
 43
0.0
 10
-210.9732028308271
 20
205.2278737902629
 10
-198.0701028594899
 20
203.6435723259959
 42
-0.4142135623730951
 10
-197.6347644553719
 20
203.0863645784727
 10
-199.2190659196388
 20
190.1832646071355
 42
-0.4142135623730943
 10
-199.7762736671619
 20
189.7479262030174
 10
-212.6793736384991
 20
191.3322276672843
 42
-0.4142135623730906
 10
-213.1147120426173
 20
191.8894354148076
 10
-211.5304105783503
 20
204.7925353861448
 42
-0.4142135623730951
  0
LWPOLYLINE
  5
110
330
1F
100
AcDbEntity
  8
0
100
AcDbPolyline
 90
        8
 70
     1
 43
0.0
 10
-85.85657492993115
 20
218.4226276432141
 10
-87.44087639419811
 20
231.3257276145513
 42
-0.4142135623730959
 10
-87.00553799008
 20
231.8829353620746
 10
-74.10243801874283
 20
233.4672368263415
 42
-0.4142135623730976
 10
-73.54523027121961
 20
233.0318984222234
 10
-71.96092880695267
 20
220.1287984508862
 42
-0.4142135623730966
 10
-72.39626721107075
 20
219.571590703363
 10
-85.29936718240792
 20
217.987289239096
 42
-0.4142135623730951
  0
LWPOLYLINE
  5
111
330
1F
100
AcDbEntity
  8
0
100
AcDbPolyline
 90
        8
 70
     1
 43
0.0
 10
-53.48826302230359
 20
221.893201695231
 10
-66.39136299364068
 20
220.3089002309641
 42
-0.4142135623730976
 10
-66.94857074116391
 20
220.7442386350822
 10
-68.53287220543086
 20
233.6473386064194
 42
-0.4142135623730955
 10
-68.09753380131278
 20
234.2045463539426
 10
-55.19443382997561
 20
235.7888478182096
 42
-0.414213562373099
 10
-54.63722608245237
 20
235.3535094140914
 10
-53.0529246181855
 20
222.4504094427543
 42
-0.4142135623730951
  0
LWPOLYLINE
  5
112
330
1F
100
AcDbEntity
  8
0
100
AcDbPolyline
 90
        8
 70
     1
 43
0.0
 10
-35.72922189368521
 20
237.6751204059595
 10
-34.14492042941828
 20
224.7720204346223
 42
-0.414213562373102
 10
-34.58025883353638
 20
224.2148126870991
 10
-47.48335880487356
 20
222.6305112228322
 42
-0.4142135623730976
 10
-48.0405665523968
 20
223.0658496269502
 10
-49.6248680166637
 20
235.9689495982875
 42
-0.4142135623730955
 10
-49.18952961254557
 20
236.5261573458107
 10
-36.28642964120846
 20
238.1104588100776
 42
-0.4142135623731144
  0
LWPOLYLINE
  5
113
330
1F
100
AcDbEntity
  8
0
100
AcDbPolyline
 90
        8
 70
     1
 43
0.0
 10
-13.35064365290116
 20
207.6284194902
 10
-26.25374362423836
 20
206.044118025933
 42
-0.4142135623731106
 10
-26.81095137176164
 20
206.4794564300511
 10
-28.39525283602854
 20
219.3825564013883
 42
-0.4142135623730966
 10
-27.95991443191037
 20
219.9397641489115
 10
-15.05681446057323
 20
221.5240656131785
 42
-0.4142135623731081
 10
-14.49960671304993
 20
221.0887272090604
 10
-12.91530524878308
 20
208.1856272377232
 42
-0.4142135623731042
  0
LWPOLYLINE
  5
114
330
1F
100
AcDbEntity
  8
0
100
AcDbPolyline
 90
        8
 70
     1
 43
0.0
 10
-45.7189555605287
 20
204.1578454381831
 10
-47.30325702479564
 20
217.0609454095203
 42
-0.4142135623730943
 10
-46.86791862067758
 20
217.6181531570435
 10
-33.96481864934035
 20
219.2024546213104
 42
-0.41421356237309
 10
-33.40761090181715
 20
218.7671162171923
 10
-31.8233094375502
 20
205.8640162458551
 42
-0.4142135623731042
 10
-32.25864784166834
 20
205.3068084983319
 10
-45.16174781300551
 20
203.722507034065
 42
-0.4142135623730951
  0
LWPOLYLINE
  5
115
330
1F
100
AcDbEntity
  8
0
100
AcDbPolyline
 90
        8
 70
     1
 43
0.0
 10
-65.77592280944474
 20
215.2965421651754
 10
-52.8728228381076
 20
216.8808436294423
 42
-0.41421356237309
 10
-52.31561509058434
 20
216.4455052253242
 10
-50.73131362631745
 20
203.5424052539871
 42
-0.4142135623731054
 10
-51.16665203043549
 20
202.9851975064638
 10
-64.06975200177265
 20
201.4008960421969
 42
-0.4142135623731004
 10
-64.62695974929591
 20
201.836234446315
 10
-66.2112612135628
 20
214.7393344176522
 42
-0.4142135623730951
  0
LWPOLYLINE
  5
116
330
1F
100
AcDbEntity
  8
0
100
AcDbPolyline
 90
        8
 70
     1
 43
0.0
 10
6.771897999313068
 20
223.700539574912
 10
8.356199463580052
 20
210.7974396035748
 42
-0.4142135623730809
 10
7.920861059461911
 20
210.2402318560515
 10
-4.982238911875327
 20
208.6559303917846
 42
-0.41421356237309
 10
-5.539446659398521
 20
209.0912687959027
 10
-7.123748123665477
 20
221.9943687672398
 42
-0.4142135623731071
 10
-6.688409719547308
 20
222.5515765147631
 10
6.214690251789846
 20
224.13587797903
 42
-0.414213562373117
  0
LWPOLYLINE
  5
117
330
1F
100
AcDbEntity
  8
0
100
AcDbPolyline
 90
        8
 70
     1
 43
0.0
 10
-17.99386563663728
 20
245.4444278677343
 10
-30.89696560797444
 20
243.8601264034674
 42
-0.4142135623730887
 10
-31.45417335549775
 20
244.2954648075855
 10
-33.03847481976465
 20
257.1985647789227
 42
-0.4142135623730995
 10
-32.60313641564651
 20
257.7557725264459
 10
-19.7000364443094
 20
259.3400739907128
 42
-0.4142135623731106
 10
-19.14282869678612
 20
258.9047355865948
 10
-17.55852723251917
 20
246.0016356152575
 42
-0.4142135623731066
  0
LWPOLYLINE
  5
118
330
1F
100
AcDbEntity
  8
0
100
AcDbPolyline
 90
        8
 70
     1
 43
0.0
 10
-50.36217754426485
 20
241.9738538157174
 10
-51.94647900853178
 20
254.8769537870546
 42
-0.4142135623730944
 10
-51.51114060441369
 20
255.4341615345779
 10
-38.60804063307649
 20
257.0184629988448
 42
-0.4142135623730887
 10
-38.05083288555327
 20
256.5831245947267
 10
-36.46653142128633
 20
243.6800246233895
 42
-0.4142135623730966
 10
-36.90186982540445
 20
243.1228168758663
 10
-49.80496979674163
 20
241.5385154115994
 42
-0.4142135623730939
  0
LWPOLYLINE
  5
119
330
1F
100
AcDbEntity
  8
0
100
AcDbPolyline
 90
        8
 70
     1
 43
0.0
 10
-70.41914479318086
 20
253.1125505427098
 10
-57.51604482184372
 20
254.6968520069767
 42
-0.4142135623730873
 10
-56.95883707432049
 20
254.2615136028587
 10
-55.37453561005356
 20
241.3584136315214
 42
-0.4142135623731057
 10
-55.80987401417167
 20
240.8012058839982
 10
-68.71297398550876
 20
239.2169044197313
 42
-0.414213562373099
 10
-69.27018173303202
 20
239.6522428238494
 10
-70.85448319729891
 20
252.5553427951866
 42
-0.4142135623730939
  0
LWPOLYLINE
  5
120
330
1F
100
AcDbEntity
  8
0
100
AcDbPolyline
 90
        8
 70
     1
 43
0.0
 10
2.128676015576956
 20
261.5165479524463
 10
3.712977479843857
 20
248.6134479811091
 42
-0.4142135623730815
 10
3.2776390757258
 20
248.0562402335859
 10
-9.625460895611439
 20
246.471938769319
 42
-0.41421356237309
 10
-10.18266864313466
 20
246.9072771734371
 10
-11.76697010740158
 20
259.8103771447743
 42
-0.4142135623731047
 10
-11.33163170328347
 20
260.3675848922975
 10
1.571468268053735
 20
261.9518863565645
 42
-0.4142135623731054
  0
LWPOLYLINE
  5
121
330
1F
100
AcDbEntity
  8
0
100
AcDbPolyline
 90
        8
 70
     1
 43
0.0
 10
-88.26196498525492
 20
198.9342207064799
 10
-89.84626644952182
 20
211.8373206778171
 42
-0.4142135623730944
 10
-89.41092804540375
 20
212.3945284253403
 10
-76.50782807406662
 20
213.9788298896073
 42
-0.4142135623730912
 10
-75.95062032654336
 20
213.5434914854892
 10
-74.36631886227647
 20
200.640391514152
 42
-0.4142135623730944
 10
-74.80165726639454
 20
200.0831837666288
 10
-87.70475723773168
 20
198.4988823023618
 42
-0.4142135623730906
  0
LWPOLYLINE
  5
123
330
1F
100
AcDbEntity
  8
0
100
AcDbPolyline
 90
        8
 70
     1
 43
0.0
 10
-168.2919811577508
 20
224.7720204346224
 10
-166.7076796934839
 20
237.6751204059595
 42
-0.4142135623731004
 10
-166.1504719459607
 20
238.1104588100776
 10
-153.2473719746234
 20
236.5261573458107
 42
-0.4142135623730959
 10
-152.8120335705054
 20
235.9689495982875
 10
-154.3963350347723
 20
223.0658496269503
 42
-0.4142135623730999
 10
-154.9535427822955
 20
222.6305112228322
 10
-167.8566427536327
 20
224.2148126870991
 42
-0.4142135623730983
  0
LWPOLYLINE
  5
124
330
1F
100
AcDbEntity
  8
0
100
AcDbPolyline
 90
        8
 70
     1
 43
0.0
 10
-147.0623659771155
 20
241.3584136315215
 42
0.4142135623731004
 10
-146.6270275729974
 20
240.8012058839982
 10
-133.7239276016603
 20
239.2169044197313
 42
0.4142135623730944
 10
-133.1667198541371
 20
239.6522428238494
 10
-131.5824183898701
 20
252.5553427951866
 42
0.4142135623730977
 10
-132.0177567939882
 20
253.1125505427098
 10
-144.9208567653254
 20
254.6968520069767
 42
0.41421356237309
 10
-145.4780645128486
 20
254.2615136028587
  0
LWPOLYLINE
  5
126
330
1F
100
AcDbEntity
  8
0
100
AcDbPolyline
 90
        8
 70
     1
 43
0.0
 10
-187.199985346518
 20
227.0936314264904
 10
-185.615683882251
 20
239.9967313978276
 42
-0.4142135623731062
 10
-185.0584761347279
 20
240.4320698019457
 10
-172.1553761633906
 20
238.8477683376787
 42
-0.4142135623730944
 10
-171.7200377592726
 20
238.2905605901555
 10
-173.3043392235394
 20
225.3874606188183
 42
-0.4142135623730993
 10
-173.8615469710627
 20
224.9521222147002
 10
-186.7646469423999
 20
226.5364236789671
 42
-0.4142135623730913
  0
LWPOLYLINE
  5
127
330
1F
100
AcDbEntity
  8
0
100
AcDbPolyline
 90
        8
 70
     1
 43
0.0
 10
-150.4904225786374
 20
254.8769537870546
 42
0.4142135623730951
 10
-150.9257609827554
 20
255.4341615345779
 10
-163.8288609540926
 20
257.0184629988448
 42
0.4142135623731004
 10
-164.3860687016158
 20
256.5831245947267
 10
-165.9703701658827
 20
243.6800246233896
 42
0.4142135623730996
 10
-165.5350317617646
 20
243.1228168758663
 10
-152.6319317904274
 20
241.5385154115994
 42
0.4142135623730798
 10
-152.0747240429042
 20
241.9738538157174
  0
LWPOLYLINE
  5
128
330
1F
100
AcDbEntity
  8
0
100
AcDbPolyline
 90
        8
 70
     1
 43
0.0
 10
-189.521596338386
 20
208.1856272377232
 10
-187.9372948741191
 20
221.0887272090604
 42
-0.414213562373105
 10
-187.3800871265958
 20
221.5240656131785
 10
-174.4769871552586
 20
219.9397641489115
 42
-0.4142135623730943
 10
-174.0416487511406
 20
219.3825564013883
 10
-175.6259502154075
 20
206.4794564300512
 42
-0.414213562373099
 10
-176.1831579629308
 20
206.044118025933
 10
-189.0862579342679
 20
207.6284194902
 42
-0.4142135623731054
  0
LWPOLYLINE
  5
129
330
1F
100
AcDbEntity
  8
0
100
AcDbPolyline
 90
        8
 70
     1
 43
0.0
 10
-195.3131534635037
 20
221.9943687672399
 42
0.4142135623731004
 10
-195.7484918676218
 20
222.5515765147631
 10
-208.651591838959
 20
224.1358779790301
 42
0.4142135623731155
 10
-209.2087995864822
 20
223.700539574912
 10
-210.7931010507491
 20
210.7974396035748
 42
0.4142135623730847
 10
-210.3577626466311
 20
210.2402318560515
 10
-197.4546626752938
 20
208.6559303917846
 42
0.4142135623730834
 10
-196.8974549277705
 20
209.0912687959027
  0
LWPOLYLINE
  5
131
330
1F
100
AcDbEntity
  8
0
100
AcDbPolyline
 90
        8
 70
     1
 43
0.0
 10
-195.1330516834257
 20
227.5639345805518
 10
-208.036151654763
 20
229.1482360448187
 42
-0.4142135623730951
 10
-208.4714900588811
 20
229.705443792342
 10
-206.8871885946143
 20
242.6085437636792
 42
-0.4142135623730959
 10
-206.329980847091
 20
243.0438821677972
 10
-193.4268808757537
 20
241.4595807035303
 42
-0.4142135623730937
 10
-192.9915424716356
 20
240.9023729560071
 10
-194.5758439359025
 20
227.9992729846699
 42
-0.4142135623730834
  0
LWPOLYLINE
  5
132
330
1F
100
AcDbEntity
  8
0
100
AcDbPolyline
 90
        8
 70
     1
 43
0.0
 10
-169.3984267674045
 20
257.1985647789227
 10
-170.9827282316714
 20
244.2954648075855
 42
-0.414213562373099
 10
-171.5399359791946
 20
243.8601264034674
 10
-184.4430359505318
 20
245.4444278677343
 42
-0.4142135623731054
 10
-184.8783743546499
 20
246.0016356152576
 10
-183.294072890383
 20
258.9047355865948
 42
-0.4142135623731067
 10
-182.7368651428598
 20
259.3400739907128
 10
-169.8337651715226
 20
257.7557725264459
 42
-0.4142135623730894
  0
LWPOLYLINE
  5
133
330
1F
100
AcDbEntity
  8
0
100
AcDbPolyline
 90
        8
 70
     1
 43
0.0
 10
-170.6135921496189
 20
205.8640162458551
 42
0.4142135623730925
 10
-170.1782537455009
 20
205.3068084983319
 10
-157.2751537741636
 20
203.722507034065
 42
0.41421356237309
 10
-156.7179460266404
 20
204.1578454381831
 10
-155.1336445623734
 20
217.0609454095203
 42
0.4142135623730944
 10
-155.5689829664915
 20
217.6181531570435
 10
-168.4720829378287
 20
219.2024546213104
 42
0.4142135623730903
 10
-169.0292906853519
 20
218.7671162171923
  0
LWPOLYLINE
  5
134
330
1F
100
AcDbEntity
  8
0
100
AcDbPolyline
 90
        8
 70
     1
 43
0.0
 10
-117.1375344047611
 20
217.9872892390961
 10
-130.0406343760983
 20
219.571590703363
 42
-0.41421356237309
 10
-130.4759727802164
 20
220.1287984508862
 10
-128.8916713159495
 20
233.0318984222234
 42
-0.4142135623731054
 10
-128.3344635684262
 20
233.4672368263415
 10
-115.4313635970891
 20
231.8829353620746
 42
-0.4142135623730925
 10
-114.996025192971
 20
231.3257276145513
 10
-116.5803266572379
 20
218.4226276432141
 42
-0.4142135623730951
  0
LWPOLYLINE
  5
135
330
1F
100
AcDbEntity
  8
0
100
AcDbPolyline
 90
        8
 70
     1
 43
0.0
 10
-114.7321443494374
 20
198.4988823023618
 10
-127.6352443207745
 20
200.0831837666287
 42
-0.414213562373099
 10
-128.0705827248926
 20
200.640391514152
 10
-126.4862812606257
 20
213.5434914854892
 42
-0.4142135623730906
 10
-125.9290735131024
 20
213.9788298896073
 10
-113.0259735417654
 20
212.3945284253404
 42
-0.4142135623730951
 10
-112.5906351376472
 20
211.8373206778171
 10
-114.1749366019142
 20
198.9342207064799
 42
-0.4142135623730919
  0
LWPOLYLINE
  5
136
330
1F
100
AcDbEntity
  8
0
100
AcDbPolyline
 90
        8
 70
     1
 43
0.0
 10
-149.3839769689836
 20
222.4504094427543
 10
-147.7996755047168
 20
235.3535094140914
 42
-0.4142135623731004
 10
-147.2424677571934
 20
235.7888478182096
 10
-134.3393677858563
 20
234.2045463539426
 42
-0.4142135623730919
 10
-133.9040293817382
 20
233.6473386064194
 10
-135.4883308460051
 20
220.7442386350822
 42
-0.4142135623730949
 10
-136.0455385935284
 20
220.3089002309641
 10
-148.9486385648655
 20
221.893201695231
 42
-0.4142135623730944
  0
LWPOLYLINE
  5
137
330
1F
100
AcDbEntity
  8
0
100
AcDbPolyline
 90
        8
 70
     1
 43
0.0
 10
-149.5640787490615
 20
216.8808436294423
 42
0.4142135623730922
 10
-150.1212864965848
 20
216.4455052253243
 10
-151.7055879608516
 20
203.5424052539871
 42
0.4142135623730944
 10
-151.2702495567335
 20
202.9851975064638
 10
-138.3671495853964
 20
201.4008960421969
 42
0.4142135623731047
 10
-137.8099418378732
 20
201.8362344463151
 10
-136.2256403736062
 20
214.7393344176522
 42
0.4142135623730959
 10
-136.6609787777244
 20
215.2965421651754
  0
LWPOLYLINE
  5
138
330
1F
100
AcDbEntity
  8
0
100
AcDbPolyline
 90
       20
 70
     1
 43
0.0
 10
-18.68140644000786
 20
226.1669462970986
 10
-18.49860242490007
 20
224.6781270696365
 42
-0.4142135623730784
 10
-18.93394082901817
 20
224.1209193221133
 10
-24.88921773886606
 20
223.3897032616824
 42
-0.4142135623730743
 10
-25.44642548638925
 20
223.8250416658005
 10
-25.62922950149701
 20
225.3138608932625
 10
-28.57535461610638
 20
224.9521222147002
 42
-0.4142135623731067
 10
-29.13256236362963
 20
225.3874606188183
 10
-30.71686382789656
 20
238.2905605901555
 42
-0.414213562373076
 10
-30.28152542377848
 20
238.8477683376788
 10
3.893079259921705
 20
243.0438821677972
 42
-0.4142135623731094
 10
4.450287007445069
 20
242.6085437636791
 10
6.034588471711913
 20
229.7054437923419
 42
-0.4142135623730943
 10
5.599250067593799
 20
229.1482360448187
 10
5.016625476580601
 20
229.0766987402399
 10
5.199429491688419
 20
227.5878795127778
 42
-0.4142135623730976
 10
4.76409108757025
 20
227.0306717652545
 10
-1.191185822277617
 20
226.2994557048237
 42
-0.4142135623730951
 10
-1.748393569800839
 20
226.7347941089418
 10
-1.931197584908602
 20
228.2236133364039
  0
CIRCLE
  5
139
330
1F
100
AcDbEntity
  8
0
100
AcDbCircle
 10
-101.2184507935846
 20
220.099279103239
 30
0.0
 40
4.5
  0
LWPOLYLINE
  5
146
330
1F
100
AcDbEntity
  8
0
100
AcDbPolyline
 90
        8
 70
     1
 43
0.0
 10
-125.7908612647525
 20
238.7466012656699
 10
-124.2065598004856
 20
251.6497012370071
 42
-0.41421356237309
 10
-123.6493520529623
 20
252.0850396411252
 10
-110.7462520816252
 20
250.5007381768583
 42
-0.4142135623730951
 10
-110.3109136775071
 20
249.9435304293351
 10
-111.895215141774
 20
237.0404304579978
 42
-0.4142135623730955
 10
-112.4524228892973
 20
236.6050920538797
 10
-125.3555228606344
 20
238.1893935181467
 42
-0.4142135623730931
  0
LWPOLYLINE
  5
149
330
1F
100
AcDbEntity
  8
0
100
AcDbPolyline
 90
        8
 70
     1
 43
0.0
 10
-90.54168644539501
 20
237.0404304579978
 10
-92.12598790966195
 20
249.943530429335
 42
-0.4142135623730957
 10
-91.69064950554387
 20
250.5007381768583
 10
-78.78754953420671
 20
252.0850396411252
 42
-0.4142135623730912
 10
-78.23034178668347
 20
251.6497012370071
 10
-76.64604032241658
 20
238.7466012656699
 42
-0.4142135623731057
 10
-77.08137872653466
 20
238.1893935181467
 10
-89.98447869787179
 20
236.6050920538797
 42
-0.4142135623730874
  0
LWPOLYLINE
  5
172
330
1F
100
AcDbEntity
  8
0
100
AcDbPolyline
 90
        8
 70
     1
 43
0.0
 10
-204.0083698552229
 20
261.9518863565645
 10
-191.1052698838857
 20
260.3675848922975
 42
-0.4142135623730925
 10
-190.6699314797676
 20
259.8103771447743
 10
-192.2542329440345
 20
246.9072771734371
 42
-0.4142135623730939
 10
-192.8114406915576
 20
246.471938769319
 10
-205.714540662895
 20
248.0562402335859
 42
-0.4142135623730847
 10
-206.149879067013
 20
248.6134479811092
 10
-204.5655776027461
 20
261.5165479524463
 42
-0.4142135623730963
  0
LWPOLYLINE
  5
10081
330
1F
100
AcDbEntity
  8
0
100
AcDbPolyline
 90
        8
 70
     1
 43
0.0
 10
-156.8289906862253
 20
181.2011536947117
 10
-185.6128306598492
 20
184.7353648469728
 42
-0.4142135623732465
 10
-186.0481690639671
 20
185.2925725944961
 10
-186.0178103156322
 20
185.5398247580542
 42
-0.4142135623729431
 10
-185.4606025681088
 20
185.9751631621722
 10
-156.6767625944854
 20
182.4409520099114
 42
-0.4142135623730113
 10
-156.2414241903672
 20
181.8837442623883
 10
-156.2717829387019
 20
181.6364920988301
 42
-0.4142135623732003
  0
LWPOLYLINE
  5
10082
330
1F
100
AcDbEntity
  8
0
100
AcDbPolyline
 90
       59
 70
     1
 43
0.0
 10
-6.46327258281434
 20
186.5112658350359
 42
0.4142135623731997
 10
-5.906064835290948
 20
186.0759274309175
 10
-1.19146982700073
 20
186.6548069088351
 42
-1.0
 10
-0.7649271250853929
 20
183.1808953781106
 10
-60.81396929938723
 20
175.8078001021095
 42
-1.0
 10
-61.24051200130233
 20
179.2817116328337
 10
-56.52591699297286
 20
179.8605911107669
 42
0.4142135623732577
 10
-56.09057858885501
 20
180.4177988582902
 10
-56.1209373371899
 20
180.6650510218484
 42
0.4142135623729486
 10
-56.6781450847132
 20
181.1003894259663
 10
-85.65971575746454
 20
177.5418999966402
 10
-116.7771858297384
 20
177.5418999966402
 10
-145.7587565024559
 20
181.1003894259663
 42
0.4142135623729429
 10
-146.3159642499793
 20
180.6650510218484
 10
-146.3463229983142
 20
180.4177988582902
 42
0.4142135623732617
 10
-145.9109845941963
 20
179.860591110767
 10
-141.1963895599826
 20
179.2817116296646
 42
-0.9999999925494194
 10
-141.6229322877832
 20
175.8078001020993
 10
-201.6719744620852
 20
183.1808953781004
 42
-1.0
 10
-201.2454317601671
 20
186.6548069088454
 10
-196.5308367518782
 20
186.0759274309176
 42
0.4142135623732001
 10
-195.9736290043548
 20
186.5112658350359
 10
-195.9432702560201
 20
186.7585179985941
 42
0.4142135623730071
 10
-196.3786086601383
 20
187.3157257461172
 10
-216.7754320763673
 20
189.8201407530929
 42
-0.4142135623731237
 10
-217.6461088846035
 20
190.9345562481394
 10
-208.731366414517
 20
263.5393072407021
 42
-0.4142135623731062
 10
-207.6169509194706
 20
264.4099840489383
 10
-187.2201275032415
 20
261.9055690419625
 42
0.4142135623730061
 10
-186.6629197557182
 20
262.3409074460805
 10
-186.6325610073833
 20
262.5881596096387
 42
0.4142135623731973
 10
-187.0678994115015
 20
263.1453673571622
 10
-191.782494419774
 20
263.7242468350982
 42
-1.0
 10
-191.3559517178583
 20
267.1981583658226
 10
-131.3069095435834
 20
259.8250630898144
 42
-1.0
 10
-131.7334522454806
 20
256.3511515590672
 10
-136.4480472538197
 20
256.930031037011
 42
0.4142135623732574
 10
-137.0052550013427
 20
256.4946926328928
 10
-137.0356137496774
 20
256.2474404693346
 42
0.4142135623729431
 10
-136.6002753455592
 20
255.6902327218115
 10
-101.2184507935844
 20
251.3458909302538
 10
-65.83662624160999
 20
255.6902327218115
 42
0.4142135623729363
 10
-65.40128783749176
 20
256.2474404693346
 10
-65.43164658582646
 20
256.4946926328928
 42
0.4142135623732522
 10
-65.98885433334948
 20
256.930031037011
 10
-70.70344936756706
 20
256.3511515559112
 42
-0.9999999925494194
 10
-71.12999204360028
 20
259.8250630898122
 10
-11.08094984342705
 20
267.1981583689897
 42
-0.9999999925494194
 10
-10.65440716739397
 20
263.7242468350879
 10
-15.36900217566762
 20
263.1453673571622
 42
0.414213562373183
 10
-15.80434057978584
 20
262.5881596096387
 10
-15.77398183145092
 20
262.3409074460805
 42
0.4142135623730099
 10
-15.21677408392764
 20
261.9055690419625
 10
5.180049332301365
 20
264.4099840489383
 42
-0.4142135623731056
 10
6.294464827347866
 20
263.5393072407021
 10
15.20920729743437
 20
190.9345562481394
 42
-0.4142135623731268
 10
14.33853048919815
 20
189.8201407530929
 10
-6.05829292703089
 20
187.3157257461172
 42
0.4142135623730125
 10
-6.493631331149032
 20
186.7585179985941
  0
LWPOLYLINE
  5
10083
330
1F
100
AcDbEntity
  8
0
100
AcDbPolyline
 90
        8
 70
     1
 43
0.0
 10
-16.82407092731995
 20
184.7353648469724
 10
-45.60791090094386
 20
181.2011536947117
 42
-0.4142135623731997
 10
-46.16511864846723
 20
181.6364920988301
 10
-46.19547739680195
 20
181.8837442623882
 42
-0.4142135623730113
 10
-45.76013899268377
 20
182.4409520099113
 10
-16.97629901906038
 20
185.9751631621721
 42
-0.4142135623729495
 10
-16.41909127153707
 20
185.5398247580542
 10
-16.38873252320175
 20
185.2925725944961
 42
-0.4142135623732676
  0
LWPOLYLINE
  5
10084
330
1F
100
AcDbEntity
  8
0
100
AcDbPolyline
 90
        8
 70
     1
 43
0.0
 10
-55.07084824132047
 20
258.2705936209562
 10
-26.28700826769662
 20
261.8048047732169
 42
-0.4142135623732419
 10
-25.72980052017354
 20
261.3694663690988
 10
-25.69944177183894
 20
261.1222142055406
 42
-0.414213562372937
 10
-26.1347801759571
 20
260.5650064580174
 10
-54.91862014958051
 20
257.0307953057566
 42
-0.4142135623730113
 10
-55.47582789710379
 20
257.4661337098746
 10
-55.50618664543867
 20
257.7133858734327
 42
-0.4142135623731973
  0
LWPOLYLINE
  5
10085
330
1F
100
AcDbEntity
  8
0
100
AcDbPolyline
 90
        8
 70
     1
 43
0.0
 10
-176.1498933194725
 20
261.8048047732169
 10
-147.3660533458487
 20
258.2705936209562
 42
-0.4142135623731973
 10
-146.9307149417305
 20
257.7133858734327
 10
-146.9610736900653
 20
257.4661337098746
 42
-0.4142135623730113
 10
-147.5182814375886
 20
257.0307953057566
 10
-176.302121411212
 20
260.5650064580175
 42
-0.4142135623729405
 10
-176.7374598153303
 20
261.1222142055406
 10
-176.7071010669956
 20
261.3694663690988
 42
-0.4142135623732577
  0
ENDSEC
  0
SECTION
  2
OBJECTS
  0
DICTIONARY
  5
C
330
0
100
AcDbDictionary
281
     1
  3
ACAD_CIP_PREVIOUS_PRODUCT_INFO
350
1005A
  3
ACAD_COLOR
350
10036
  3
ACAD_DETAILVIEWSTYLE
350
10051
  3
ACAD_GROUP
350
D
  3
ACAD_LAST_SAVED_VERSION_INFO
350
1005B
  3
ACAD_LAYOUT
350
10037
  3
ACAD_MATERIAL
350
10004
  3
ACAD_MLEADERSTYLE
350
1004D
  3
ACAD_MLINESTYLE
350
17
  3
ACAD_PLOTSETTINGS
350
10054
  3
ACAD_PLOTSTYLENAME
350
10002
  3
ACAD_SCALELIST
350
1003B
  3
ACAD_SECTIONVIEWSTYLE
350
1004F
  3
ACAD_TABLESTYLE
350
10038
  3
ACAD_VISUALSTYLE
350
1001D
  3
ACDB_RECOMPOSE_DATA
350
100DB
  3
AcDbVariableDictionary
350
1005E
  0
DICTIONARY
  5
1005C
330
50
100
AcDbDictionary
280
     1
281
     1
  3
ADSK_XREC_LAYER_RECONCILED
360
1005D
  0
XRECORD
  5
1005A
102
{ACAD_REACTORS
330
C
102
}
330
C
100
AcDbXrecord
280
     1
300
ACD
300
2024
300

  0
DICTIONARY
  5
10036
102
{ACAD_REACTORS
330
C
102
}
330
C
100
AcDbDictionary
281
     1
  0
DICTIONARY
  5
10051
102
{ACAD_REACTORS
330
C
102
}
330
C
100
AcDbDictionary
281
     1
  3
Imperial24
350
10052
  0
DICTIONARY
  5
D
330
C
100
AcDbDictionary
281
     1
  0
XRECORD
  5
1005B
102
{ACAD_REACTORS
330
C
102
}
330
C
100
AcDbXrecord
280
     1
300
{9C48AA04-2F19-A648-B420-DA0C94935D33}
301
{8128A746-1A9B-FE4A-9862-E25F382D76D9}
302
{9C48AA04-2F19-A648-B420-DA0C94935D33}
303
C:\Keyboard\cheerz\322.dxf
  0
DICTIONARY
  5
10037
102
{ACAD_REACTORS
330
C
102
}
330
C
100
AcDbDictionary
281
     1
  3
Model
350
10055
  3
1
350
10056
  0
DICTIONARY
  5
10004
102
{ACAD_REACTORS
330
C
102
}
330
C
100
AcDbDictionary
281
     1
  3
ByBlock
350
1000D
  3
ByLayer
350
10005
  3
Global
350
10015
  0
DICTIONARY
  5
1004D
102
{ACAD_REACTORS
330
C
102
}
330
C
100
AcDbDictionary
281
     1
  3
Standard
350
1004E
  0
DICTIONARY
  5
17
330
C
100
AcDbDictionary
281
     1
  3
Standard
350
1003A
  0
DICTIONARY
  5
10054
102
{ACAD_REACTORS
330
C
102
}
330
C
100
AcDbDictionary
281
     1
  0
ACDBDICTIONARYWDFLT
  5
10002
102
{ACAD_REACTORS
330
C
102
}
330
C
100
AcDbDictionary
281
     1
  3
Normal
350
10003
100
AcDbDictionaryWithDefault
340
10003
  0
DICTIONARY
  5
1003B
102
{ACAD_REACTORS
330
C
102
}
330
C
100
AcDbDictionary
281
     1
  3
A0
350
1003C
  3
A1
350
1003D
  3
A2
350
1003E
  3
A3
350
1003F
  3
A4
350
10040
  3
A5
350
10041
  3
A6
350
10042
  3
A7
350
10043
  3
A8
350
10044
  3
A9
350
10045
  3
B0
350
10046
  3
B1
350
10047
  3
B2
350
10048
  3
B3
350
10049
  3
B4
350
1004A
  3
B5
350
1004B
  3
B6
350
1004C
  0
DICTIONARY
  5
1004F
102
{ACAD_REACTORS
330
C
102
}
330
C
100
AcDbDictionary
281
     1
  3
Imperial24
350
10050
  0
DICTIONARY
  5
10038
102
{ACAD_REACTORS
330
C
102
}
330
C
100
AcDbDictionary
281
     1
  3
Standard
350
10039
  0
DICTIONARY
  5
1001D
102
{ACAD_REACTORS
330
C
102
}
330
C
100
AcDbDictionary
281
     1
  3
2dWireframe
350
10023
  3
Basic
350
10022
  3
Brighten
350
10029
  3
ColorChange
350
1002D
  3
Conceptual
350
10026
  3
Dim
350
10028
  3
EdgeColorOff
350
10035
  3
Facepattern
350
1002C
  3
Flat
350
1001E
  3
FlatWithEdges
350
1001F
  3
Gouraud
350
10020
  3
GouraudWithEdges
350
10021
  3
Hidden
350
10025
  3
JitterOff
350
10033
  3
Linepattern
350
1002B
  3
OverhangOff
350
10034
  3
Realistic
350
10027
  3
Shaded
350
10032
  3
Shaded with edges
350
10031
  3
Shades of Gray
350
1002E
  3
Sketchy
350
1002F
  3
Thicken
350
1002A
  3
Wireframe
350
10024
  3
X-Ray
350
10030
  0
XRECORD
  5
100DB
102
{ACAD_REACTORS
330
C
102
}
330
C
100
AcDbXrecord
280
     1
 90
        1
330
10039
  0
DICTIONARY
  5
1005E
102
{ACAD_REACTORS
330
C
102
}
330
C
100
AcDbDictionary
281
     1
  3
CANNOSCALE
350
10064
  3
CMLEADERSTYLE
350
10060
  3
CTABLESTYLE
350
1005F
  3
CVIEWDETAILSTYLE
350
10061
  3
CVIEWSECTIONSTYLE
350
10062
  3
LAYEREVAL
350
10066
  3
LAYERNOTIFY
350
10067
  3
LIGHTINGUNITS
350
10065
  3
MSLTSCALE
350
10063
  0
XRECORD
  5
1005D
102
{ACAD_REACTORS
330
1005C
102
}
330
1005C
100
AcDbXrecord
280
     1
290
     1
  0
ACDBDETAILVIEWSTYLE
  5
10052
102
{ACAD_REACTORS
330
10051
102
}
330
10051
100
AcDbModelDocViewStyle
 70
     0
  3
Imperial24
290
     0
300
Imperial24
 90
        0
100
AcDbDetailViewStyle
 70
     0
 71
     0
 90
        3
 71
     1
340
11
 62
   256
 40
0.24
340
0
 62
   256
 40
0.24
300

 40
0.36
280
     3
 71
     2
340
10001
 90
       25
 62
   256
 71
     3
340
11
 62
   256
 40
0.24
 90
        1
 40
0.75
 90
        1
300
%<\AcVar ViewType \f "%tc1">% %<\AcVar ViewDetailId>%\PSCALE %<\AcVar ViewScale \f "%sn">%
 71
     4
340
10001
 90
       25
 62
   256
340
10001
 90
       25
 62
   256
280
     0
  0
LAYOUT
  5
10055
102
{ACAD_REACTORS
330
10037
102
}
330
10037
100
AcDbPlotSettings
  1

  2
Microsoft Print to PDF
  4

  6

 40
0.0
 41
0.0
 42
0.0
 43
0.0
 44
0.0
 45
0.0
 46
0.0
 47
0.0
 48
0.0
 49
0.0
140
0.0
141
0.0
142
1.0
143
1.0
 70
  1712
 72
     0
 73
     0
 74
     0
  7

 75
     0
147
1.0
 76
     0
 77
     2
 78
   300
148
0.0
149
0.0
100
AcDbLayout
  1
Model
 70
     1
 71
     0
 10
0.0
 20
0.0
 11
12.0
 21
9.0
 12
0.0
 22
0.0
 32
0.0
 14
0.0
 24
0.0
 34
0.0
 15
0.0
 25
0.0
 35
0.0
146
0.0
 13
0.0
 23
0.0
 33
0.0
 16
1.0
 26
0.0
 36
0.0
 17
0.0
 27
1.0
 37
0.0
 76
     0
330
1F
331
10059
  0
LAYOUT
  5
10056
102
{ACAD_REACTORS
330
10037
102
}
330
10037
100
AcDbPlotSettings
  1

  2
Microsoft Print to PDF
  4

  6

 40
0.0
 41
0.0
 42
0.0
 43
0.0
 44
0.0
 45
0.0
 46
0.0
 47
0.0
 48
0.0
 49
0.0
140
0.0
141
0.0
142
1.0
143
1.0
 70
   688
 72
     0
 73
     0
 74
     5
  7

 75
    16
147
1.0
 76
     0
 77
     2
 78
   300
148
0.0
149
0.0
100
AcDbLayout
  1
1
 70
     1
 71
     1
 10
0.0
 20
0.0
 11
12.0
 21
9.0
 12
0.0
 22
0.0
 32
0.0
 14
1.000000000000000E+20
 24
1.000000000000000E+20
 34
1.000000000000000E+20
 15
-1.000000000000000E+20
 25
-1.000000000000000E+20
 35
-1.000000000000000E+20
146
0.0
 13
0.0
 23
0.0
 33
0.0
 16
1.0
 26
0.0
 36
0.0
 17
0.0
 27
1.0
 37
0.0
 76
     0
330
1B
  0
MATERIAL
  5
1000D
102
{ACAD_XDICTIONARY
360
1000E
102
}
102
{ACAD_REACTORS
330
10004
102
}
330
10004
100
AcDbMaterial
  1
ByBlock
 72
     0
 43
0.0008202099737533
 43
0.0
 43
0.0
 43
0.0
 43
0.0
 43
0.0008202099737533
 43
0.0
 43
0.0
 43
0.0
 43
0.0
 43
1.0
 43
0.0
 43
0.0
 43
0.0
 43
0.0
 43
1.0
 77
     0
 47
0.0008202099737533
 47
0.0
 47
0.0
 47
0.0
 47
0.0
 47
0.0008202099737533
 47
0.0
 47
0.0
 47
0.0
 47
0.0
 47
1.0
 47
0.0
 47
0.0
 47
0.0
 47
0.0
 47
1.0
171
     0
 49
0.0008202099737533
 49
0.0
 49
0.0
 49
0.0
 49
0.0
 49
0.0008202099737533
 49
0.0
 49
0.0
 49
0.0
 49
0.0
 49
1.0
 49
0.0
 49
0.0
 49
0.0
 49
0.0
 49
1.0
175
     0
142
0.0008202099737533
142
0.0
142
0.0
142
0.0
142
0.0
142
0.0008202099737533
142
0.0
142
0.0
142
0.0
142
0.0
142
1.0
142
0.0
142
0.0
142
0.0
142
0.0
142
1.0
179
     0
144
0.0008202099737533
144
0.0
144
0.0
144
0.0
144
0.0
144
0.0008202099737533
144
0.0
144
0.0
144
0.0
144
0.0
144
1.0
144
0.0
144
0.0
144
0.0
144
0.0
144
1.0
147
0.0008202099737533
147
0.0
147
0.0
147
0.0
147
0.0
147
0.0008202099737533
147
0.0
147
0.0
147
0.0
147
0.0
147
1.0
147
0.0
147
0.0
147
0.0
147
0.0
147
1.0
  0
MATERIAL
  5
10005
102
{ACAD_XDICTIONARY
360
10006
102
}
102
{ACAD_REACTORS
330
10004
102
}
330
10004
100
AcDbMaterial
  1
ByLayer
 72
     0
 43
0.0008202099737533
 43
0.0
 43
0.0
 43
0.0
 43
0.0
 43
0.0008202099737533
 43
0.0
 43
0.0
 43
0.0
 43
0.0
 43
1.0
 43
0.0
 43
0.0
 43
0.0
 43
0.0
 43
1.0
 77
     0
 47
0.0008202099737533
 47
0.0
 47
0.0
 47
0.0
 47
0.0
 47
0.0008202099737533
 47
0.0
 47
0.0
 47
0.0
 47
0.0
 47
1.0
 47
0.0
 47
0.0
 47
0.0
 47
0.0
 47
1.0
171
     0
 49
0.0008202099737533
 49
0.0
 49
0.0
 49
0.0
 49
0.0
 49
0.0008202099737533
 49
0.0
 49
0.0
 49
0.0
 49
0.0
 49
1.0
 49
0.0
 49
0.0
 49
0.0
 49
0.0
 49
1.0
175
     0
142
0.0008202099737533
142
0.0
142
0.0
142
0.0
142
0.0
142
0.0008202099737533
142
0.0
142
0.0
142
0.0
142
0.0
142
1.0
142
0.0
142
0.0
142
0.0
142
0.0
142
1.0
179
     0
144
0.0008202099737533
144
0.0
144
0.0
144
0.0
144
0.0
144
0.0008202099737533
144
0.0
144
0.0
144
0.0
144
0.0
144
1.0
144
0.0
144
0.0
144
0.0
144
0.0
144
1.0
147
0.0008202099737533
147
0.0
147
0.0
147
0.0
147
0.0
147
0.0008202099737533
147
0.0
147
0.0
147
0.0
147
0.0
147
1.0
147
0.0
147
0.0
147
0.0
147
0.0
147
1.0
  0
MATERIAL
  5
10015
102
{ACAD_XDICTIONARY
360
10016
102
}
102
{ACAD_REACTORS
330
10004
102
}
330
10004
100
AcDbMaterial
  1
Global
 72
     0
 43
0.0008202099737533
 43
0.0
 43
0.0
 43
0.0
 43
0.0
 43
0.0008202099737533
 43
0.0
 43
0.0
 43
0.0
 43
0.0
 43
1.0
 43
0.0
 43
0.0
 43
0.0
 43
0.0
 43
1.0
 77
     0
 47
0.0008202099737533
 47
0.0
 47
0.0
 47
0.0
 47
0.0
 47
0.0008202099737533
 47
0.0
 47
0.0
 47
0.0
 47
0.0
 47
1.0
 47
0.0
 47
0.0
 47
0.0
 47
0.0
 47
1.0
171
     0
 49
0.0008202099737533
 49
0.0
 49
0.0
 49
0.0
 49
0.0
 49
0.0008202099737533
 49
0.0
 49
0.0
 49
0.0
 49
0.0
 49
1.0
 49
0.0
 49
0.0
 49
0.0
 49
0.0
 49
1.0
175
     0
142
0.0008202099737533
142
0.0
142
0.0
142
0.0
142
0.0
142
0.0008202099737533
142
0.0
142
0.0
142
0.0
142
0.0
142
1.0
142
0.0
142
0.0
142
0.0
142
0.0
142
1.0
179
     0
144
0.0008202099737533
144
0.0
144
0.0
144
0.0
144
0.0
144
0.0008202099737533
144
0.0
144
0.0
144
0.0
144
0.0
144
1.0
144
0.0
144
0.0
144
0.0
144
0.0
144
1.0
147
0.0008202099737533
147
0.0
147
0.0
147
0.0
147
0.0
147
0.0008202099737533
147
0.0
147
0.0
147
0.0
147
0.0
147
1.0
147
0.0
147
0.0
147
0.0
147
0.0
147
1.0
  0
MLEADERSTYLE
  5
1004E
102
{ACAD_REACTORS
330
1004D
102
}
330
1004D
100
AcDbMLeaderStyle
179
     2
170
     2
171
     1
172
     0
 90
        2
 40
0.0
 41
0.0
173
     1
 91
-1056964608
340
14
 92
       -2
290
     1
 42
0.09
291
     1
 43
0.36
  3
Standard
 44
0.18
300

342
11
174
     1
178
     6
175
     1
176
     0
 93
-1056964608
 45
0.18
292
     0
297
     0
 46
0.18
 94
-1056964608
 47
1.0
 49
1.0
140
1.0
293
     1
141
0.0
294
     1
177
     0
142
1.0
295
     0
296
     0
143
0.125
271
     0
272
     9
273
     9
298
     0
  0
MLINESTYLE
  5
1003A
102
{ACAD_REACTORS
330
17
102
}
330
17
100
AcDbMlineStyle
  2
STANDARD
 70
     0
  3

 62
   256
 51
90.0
 52
90.0
 71
     2
 49
0.5
 62
   256
  6
BYLAYER
 49
-0.5
 62
   256
  6
BYLAYER
  0
ACDBPLACEHOLDER
  5
10003
102
{ACAD_REACTORS
330
10002
102
}
330
10002
  0
SCALE
  5
1003C
102
{ACAD_REACTORS
330
1003B
102
}
330
1003B
100
AcDbScale
 70
     0
300
1:1
140
1.0
141
1.0
290
     1
  0
SCALE
  5
1003D
102
{ACAD_REACTORS
330
1003B
102
}
330
1003B
100
AcDbScale
 70
     0
300
1/128" = 1'-0"
140
0.0078125
141
12.0
290
     0
  0
SCALE
  5
1003E
102
{ACAD_REACTORS
330
1003B
102
}
330
1003B
100
AcDbScale
 70
     0
300
1/64" = 1'-0"
140
0.015625
141
12.0
290
     0
  0
SCALE
  5
1003F
102
{ACAD_REACTORS
330
1003B
102
}
330
1003B
100
AcDbScale
 70
     0
300
1/32" = 1'-0"
140
0.03125
141
12.0
290
     0
  0
SCALE
  5
10040
102
{ACAD_REACTORS
330
1003B
102
}
330
1003B
100
AcDbScale
 70
     0
300
1/16" = 1'-0"
140
0.0625
141
12.0
290
     0
  0
SCALE
  5
10041
102
{ACAD_REACTORS
330
1003B
102
}
330
1003B
100
AcDbScale
 70
     0
300
3/32" = 1'-0"
140
0.09375
141
12.0
290
     0
  0
SCALE
  5
10042
102
{ACAD_REACTORS
330
1003B
102
}
330
1003B
100
AcDbScale
 70
     0
300
1/8" = 1'-0"
140
0.125
141
12.0
290
     0
  0
SCALE
  5
10043
102
{ACAD_REACTORS
330
1003B
102
}
330
1003B
100
AcDbScale
 70
     0
300
3/16" = 1'-0"
140
0.1875
141
12.0
290
     0
  0
SCALE
  5
10044
102
{ACAD_REACTORS
330
1003B
102
}
330
1003B
100
AcDbScale
 70
     0
300
1/4" = 1'-0"
140
0.25
141
12.0
290
     0
  0
SCALE
  5
10045
102
{ACAD_REACTORS
330
1003B
102
}
330
1003B
100
AcDbScale
 70
     0
300
3/8" = 1'-0"
140
0.375
141
12.0
290
     0
  0
SCALE
  5
10046
102
{ACAD_REACTORS
330
1003B
102
}
330
1003B
100
AcDbScale
 70
     0
300
1/2" = 1'-0"
140
0.5
141
12.0
290
     0
  0
SCALE
  5
10047
102
{ACAD_REACTORS
330
1003B
102
}
330
1003B
100
AcDbScale
 70
     0
300
3/4" = 1'-0"
140
0.75
141
12.0
290
     0
  0
SCALE
  5
10048
102
{ACAD_REACTORS
330
1003B
102
}
330
1003B
100
AcDbScale
 70
     0
300
1" = 1'-0"
140
1.0
141
12.0
290
     0
  0
SCALE
  5
10049
102
{ACAD_REACTORS
330
1003B
102
}
330
1003B
100
AcDbScale
 70
     0
300
1-1/2" = 1'-0"
140
1.5
141
12.0
290
     0
  0
SCALE
  5
1004A
102
{ACAD_REACTORS
330
1003B
102
}
330
1003B
100
AcDbScale
 70
     0
300
3" = 1'-0"
140
3.0
141
12.0
290
     0
  0
SCALE
  5
1004B
102
{ACAD_REACTORS
330
1003B
102
}
330
1003B
100
AcDbScale
 70
     0
300
6" = 1'-0"
140
6.0
141
12.0
290
     0
  0
SCALE
  5
1004C
102
{ACAD_REACTORS
330
1003B
102
}
330
1003B
100
AcDbScale
 70
     0
300
1'-0" = 1'-0"
140
12.0
141
12.0
290
     0
  0
ACDBSECTIONVIEWSTYLE
  5
10050
102
{ACAD_REACTORS
330
1004F
102
}
330
1004F
100
AcDbModelDocViewStyle
 70
     0
  3
Imperial24
290
     0
300
Imperial24
 90
        0
100
AcDbSectionViewStyle
 70
     0
 71
     0
 90
       78
 71
     1
340
11
 62
   256
 40
0.24
340
0
340
0
 62
   256
 40
0.24
300
I, O, Q, S, X, Z
 40
0.48
 90
        3
 40
0.18
 90
        1
 71
     2
340
10001
 90
       25
 62
   256
340
10001
 90
       50
 62
   256
 40
0.24
 40
0.0
 40
0.24
 71
     3
340
11
 62
   256
 40
0.24
 90
        1
 40
0.75
 90
        1
300
%<\AcVar ViewType \f "%tc1">% %<\AcVar ViewSectionStartId>%-%<\AcVar ViewSectionEndId>%\PSCALE %<\AcVar ViewScale \f "%sn">%
 71
     4
 62
   256
 62
   257
300
ANSI31
 40
1.0
 90
        0
290
     0
290
     0
 90
        6
 40
0.0
 40
1.570796326794896
 40
0.2617993877991494
 40
1.308996938995747
 40
-0.2617993877991494
 40
1.832595714594045
  0
TABLESTYLE
  5
10039
102
{ACAD_XDICTIONARY
360
10068
102
}
102
{ACAD_REACTORS
330
10038
102
}
330
10038
100
AcDbTableStyle
280
     0
  3
Standard
 70
     0
 71
     0
 40
0.06
 41
0.06
280
     0
281
     0
  7
STANDARD
140
0.18
170
     2
 62
     0
 63
     7
283
     0
 90
      512
 91
        0
  1

274
    -2
284
     1
 64
     0
275
    -2
285
     1
 65
     0
276
    -2
286
     1
 66
     0
277
    -2
287
     1
 67
     0
278
    -2
288
     1
 68
     0
279
    -2
289
     1
 69
     0
  7
STANDARD
140
0.25
170
     5
 62
     0
 63
     7
283
     0
 90
      512
 91
        0
  1

274
    -2
284
     1
 64
     0
275
    -2
285
     1
 65
     0
276
    -2
286
     1
 66
     0
277
    -2
287
     1
 67
     0
278
    -2
288
     1
 68
     0
279
    -2
289
     1
 69
     0
  7
STANDARD
140
0.18
170
     5
 62
     0
 63
     7
283
     0
 90
      512
 91
        0
  1

274
    -2
284
     1
 64
     0
275
    -2
285
     1
 65
     0
276
    -2
286
     1
 66
     0
277
    -2
287
     1
 67
     0
278
    -2
288
     1
 68
     0
279
    -2
289
     1
 69
     0
  0
VISUALSTYLE
  5
10023
102
{ACAD_REACTORS
330
1001D
102
}
330
1001D
100
AcDbVisualStyle
  2
2dWireframe
 70
     4
177
     3
291
     0
 70
    58
 90
        0
176
     1
 90
        2
176
     1
 90
        0
176
     1
 90
        0
176
     1
 40
0.6
176
     1
 40
30.0
176
     1
 62
     7
420
 16777215
176
     1
 90
        1
176
     1
 90
        4
176
     1
 62
     7
176
     1
 62
   257
176
     1
 90
        1
176
     1
 90
        1
176
     1
 40
1.0
176
     1
 90
        0
176
     1
 62
   257
176
     1
 40
1.0
176
     1
 90
        1
176
     1
 90
        6
176
     1
 90
        2
176
     1
 62
     7
176
     1
 90
        5
176
     1
 90
        0
176
     1
 90
        0
176
     1
290
     0
176
     1
 90
        1
176
     1
 40
0.0
176
     1
 90
        0
176
     1
290
     1
176
     1
290
     1
176
     1
290
     0
176
     1
290
     0
176
     1
290
     0
176
     1
290
     0
176
     1
290
     0
176
     1
290
     0
176
     1
290
     0
176
     1
 90
       50
176
     1
 40
0.0
176
     1
 40
1.0
176
     1
 90
        0
176
     1
 62
    18
176
     1
 90
       50
176
     1
 90
        3
176
     1
 62
     5
420
      255
176
     1
290
     0
176
     1
 90
       50
176
     1
 90
       50
176
     1
 90
       50
176
     1
290
     0
176
     1
 90
       50
176
     1
 62
   256
176
     0
 40
1.0
176
     0
 90
        2
176
     1
  1
strokes_ogs.tif
176
     1
290
     0
176
     1
 40
1.0
176
     1
 40
1.0
176
     1
  0
VISUALSTYLE
  5
10022
102
{ACAD_REACTORS
330
1001D
102
}
330
1001D
100
AcDbVisualStyle
  2
Basic
 70
     7
177
     3
291
     1
 70
    58
 90
        1
176
     1
 90
        0
176
     1
 90
        1
176
     1
 90
        0
176
     1
 40
0.6
176
     1
 40
30.0
176
     1
 62
     7
420
 16777215
176
     1
 90
        0
176
     1
 90
        4
176
     1
 62
     7
176
     1
 62
   257
176
     1
 90
        1
176
     1
 90
        1
176
     1
 40
1.0
176
     1
 90
        8
176
     1
 62
     7
176
     1
 40
1.0
176
     1
 90
        1
176
     1
 90
        6
176
     1
 90
        2
176
     1
 62
     7
176
     1
 90
        5
176
     1
 90
        0
176
     1
 90
        0
176
     1
290
     0
176
     1
 90
        1
176
     1
 40
0.0
176
     1
 90
        0
176
     1
290
     0
176
     1
290
     1
176
     1
290
     1
176
     1
290
     0
176
     1
290
     0
176
     1
290
     0
176
     1
290
     0
176
     1
290
     0
176
     1
290
     0
176
     1
 90
       50
176
     1
 40
0.0
176
     1
 40
1.0
176
     1
 90
        0
176
     1
 62
    18
176
     1
 90
       50
176
     1
 90
        3
176
     1
 62
     5
420
      255
176
     1
290
     0
176
     1
 90
       50
176
     1
 90
       50
176
     1
 90
       50
176
     1
290
     0
176
     1
 90
       50
176
     1
 62
   256
176
     0
 40
1.0
176
     0
 90
        2
176
     1
  1
strokes_ogs.tif
176
     1
290
     0
176
     1
 40
1.0
176
     1
 40
1.0
176
     1
  0
VISUALSTYLE
  5
10029
102
{ACAD_REACTORS
330
1001D
102
}
330
1001D
100
AcDbVisualStyle
  2
Brighten
 70
    12
177
     3
291
     1
 70
    58
 90
        2
176
     1
 90
        2
176
     1
 90
        0
176
     1
 90
        0
176
     1
 40
0.6
176
     1
 40
30.0
176
     1
 62
     7
420
 16777215
176
     1
 90
        1
176
     1
 90
        4
176
     1
 62
     7
176
     1
 62
   257
176
     1
 90
        1
176
     1
 90
        1
176
     1
 40
1.0
176
     1
 90
        8
176
     1
 62
     7
176
     1
 40
1.0
176
     1
 90
        1
176
     1
 90
        6
176
     1
 90
        2
176
     1
 62
     7
176
     1
 90
        5
176
     1
 90
        0
176
     1
 90
        0
176
     1
290
     0
176
     1
 90
        1
176
     1
 40
50.0
176
     1
 90
        0
176
     1
290
     0
176
     1
290
     1
176
     1
290
     1
176
     1
290
     0
176
     1
290
     0
176
     1
290
     0
176
     1
290
     0
176
     1
290
     0
176
     1
290
     0
176
     1
 90
       50
176
     1
 40
0.0
176
     1
 40
1.0
176
     1
 90
        0
176
     1
 62
    18
176
     1
 90
       50
176
     1
 90
        3
176
     1
 62
     5
420
      255
176
     1
290
     0
176
     1
 90
       50
176
     1
 90
       50
176
     1
 90
       50
176
     1
290
     0
176
     1
 90
       50
176
     1
 62
   256
176
     0
 40
1.0
176
     0
 90
        2
176
     1
  1
strokes_ogs.tif
176
     1
290
     0
176
     1
 40
1.0
176
     1
 40
1.0
176
     1
  0
VISUALSTYLE
  5
1002D
102
{ACAD_REACTORS
330
1001D
102
}
330
1001D
100
AcDbVisualStyle
  2
ColorChange
 70
    16
177
     3
291
     1
 70
    58
 90
        2
176
     1
 90
        2
176
     1
 90
        3
176
     1
 90
        0
176
     1
 40
0.6
176
     1
 40
30.0
176
     1
 62
     8
420
  8421504
176
     1
 90
        1
176
     1
 90
        4
176
     1
 62
     7
176
     1
 62
   257
176
     1
 90
        1
176
     1
 90
        1
176
     1
 40
1.0
176
     1
 90
        8
176
     1
 62
     8
420
  8421504
176
     1
 40
1.0
176
     1
 90
        1
176
     1
 90
        6
176
     1
 90
        2
176
     1
 62
     7
176
     1
 90
        5
176
     1
 90
        0
176
     1
 90
        0
176
     1
290
     0
176
     1
 90
        1
176
     1
 40
0.0
176
     1
 90
        0
176
     1
290
     0
176
     1
290
     1
176
     1
290
     1
176
     1
290
     0
176
     1
290
     0
176
     1
290
     0
176
     1
290
     0
176
     1
290
     0
176
     1
290
     0
176
     1
 90
       50
176
     1
 40
0.0
176
     1
 40
1.0
176
     1
 90
        0
176
     1
 62
    18
176
     1
 90
       50
176
     1
 90
        3
176
     1
 62
     5
420
      255
176
     1
290
     0
176
     1
 90
       50
176
     1
 90
       50
176
     1
 90
       50
176
     1
290
     0
176
     1
 90
       50
176
     1
 62
   256
176
     0
 40
1.0
176
     0
 90
        2
176
     1
  1
strokes_ogs.tif
176
     1
290
     0
176
     1
 40
1.0
176
     1
 40
1.0
176
     1
  0
VISUALSTYLE
  5
10026
102
{ACAD_REACTORS
330
1001D
102
}
330
1001D
100
AcDbVisualStyle
  2
Conceptual
 70
     9
177
     3
291
     0
 70
    58
 90
        3
176
     1
 90
        2
176
     1
 90
        0
176
     1
 90
        0
176
     1
 40
0.6
176
     1
 40
30.0
176
     1
 62
     7
420
 16777215
176
     1
 90
        2
176
     1
 90
        2
176
     1
 62
     7
176
     1
 62
   257
176
     1
 90
        1
176
     1
 90
        1
176
     1
 40
179.0
176
     1
 90
        8
176
     1
 62
     7
176
     1
 40
1.0
176
     1
 90
        1
176
     1
 90
        6
176
     1
 90
        2
176
     1
 62
     7
176
     1
 90
        3
176
     1
 90
        0
176
     1
 90
        0
176
     1
290
     0
176
     1
 90
        1
176
     1
 40
0.0
176
     1
 90
        0
176
     1
290
     0
176
     1
290
     1
176
     1
290
     1
176
     1
290
     0
176
     1
290
     0
176
     1
290
     0
176
     1
290
     0
176
     1
290
     0
176
     1
290
     0
176
     1
 90
       50
176
     1
 40
0.0
176
     1
 40
1.0
176
     1
 90
        0
176
     1
 62
    18
176
     1
 90
       50
176
     1
 90
        3
176
     1
 62
     5
420
      255
176
     1
290
     0
176
     1
 90
       50
176
     1
 90
       50
176
     1
 90
       50
176
     1
290
     0
176
     1
 90
       50
176
     1
 62
   256
176
     0
 40
1.0
176
     0
 90
        2
176
     1
  1
strokes_ogs.tif
176
     1
290
     0
176
     1
 40
1.0
176
     1
 40
1.0
176
     1
  0
VISUALSTYLE
  5
10028
102
{ACAD_REACTORS
330
1001D
102
}
330
1001D
100
AcDbVisualStyle
  2
Dim
 70
    11
177
     3
291
     1
 70
    58
 90
        2
176
     1
 90
        2
176
     1
 90
        0
176
     1
 90
        0
176
     1
 40
0.6
176
     1
 40
30.0
176
     1
 62
     7
420
 16777215
176
     1
 90
        1
176
     1
 90
        4
176
     1
 62
     7
176
     1
 62
   257
176
     1
 90
        1
176
     1
 90
        1
176
     1
 40
1.0
176
     1
 90
        8
176
     1
 62
     7
176
     1
 40
1.0
176
     1
 90
        1
176
     1
 90
        6
176
     1
 90
        2
176
     1
 62
     7
176
     1
 90
        5
176
     1
 90
        0
176
     1
 90
        0
176
     1
290
     0
176
     1
 90
        1
176
     1
 40
-50.0
176
     1
 90
        0
176
     1
290
     0
176
     1
290
     1
176
     1
290
     1
176
     1
290
     0
176
     1
290
     0
176
     1
290
     0
176
     1
290
     0
176
     1
290
     0
176
     1
290
     0
176
     1
 90
       50
176
     1
 40
0.0
176
     1
 40
1.0
176
     1
 90
        0
176
     1
 62
    18
176
     1
 90
       50
176
     1
 90
        3
176
     1
 62
     5
420
      255
176
     1
290
     0
176
     1
 90
       50
176
     1
 90
       50
176
     1
 90
       50
176
     1
290
     0
176
     1
 90
       50
176
     1
 62
   256
176
     0
 40
1.0
176
     0
 90
        2
176
     1
  1
strokes_ogs.tif
176
     1
290
     0
176
     1
 40
1.0
176
     1
 40
1.0
176
     1
  0
VISUALSTYLE
  5
10035
102
{ACAD_REACTORS
330
1001D
102
}
330
1001D
100
AcDbVisualStyle
  2
EdgeColorOff
 70
    22
177
     3
291
     1
 70
    58
 90
        2
176
     0
 90
        2
176
     0
 90
        0
176
     0
 90
        0
176
     0
 40
0.6
176
     0
 40
30.0
176
     0
 62
     7
420
 16777215
176
     0
 90
        1
176
     0
 90
        4
176
     0
 62
     7
176
     0
 62
   257
176
     0
 90
        1
176
     0
 90
        1
176
     0
 40
1.0
176
     0
 90
        8
176
     2
 62
     7
176
     0
 40
1.0
176
     0
 90
        1
176
     0
 90
        6
176
     0
 90
        2
176
     0
 62
     7
176
     0
 90
        5
176
     0
 90
        0
176
     0
 90
        0
176
     0
290
     0
176
     0
 90
        1
176
     0
 40
0.0
176
     0
 90
        0
176
     0
290
     0
176
     1
290
     1
176
     1
290
     1
176
     1
290
     0
176
     1
290
     0
176
     1
290
     0
176
     1
290
     0
176
     1
290
     0
176
     1
290
     0
176
     1
 90
       50
176
     0
 40
0.0
176
     0
 40
1.0
176
     0
 90
        0
176
     0
 62
    18
176
     0
 90
       50
176
     0
 90
        3
176
     0
 62
     5
420
      255
176
     0
290
     0
176
     1
 90
       50
176
     0
 90
       50
176
     0
 90
       50
176
     0
290
     0
176
     1
 90
       50
176
     0
 62
   256
176
     0
 40
1.0
176
     0
 90
        2
176
     0
  1
strokes_ogs.tif
176
     0
290
     0
176
     1
 40
1.0
176
     0
 40
1.0
176
     0
  0
VISUALSTYLE
  5
1002C
102
{ACAD_REACTORS
330
1001D
102
}
330
1001D
100
AcDbVisualStyle
  2
Facepattern
 70
    15
177
     3
291
     1
 70
    58
 90
        2
176
     1
 90
        2
176
     1
 90
        0
176
     1
 90
        0
176
     1
 40
0.6
176
     1
 40
30.0
176
     1
 62
     7
420
 16777215
176
     1
 90
        1
176
     1
 90
        4
176
     1
 62
     7
176
     1
 62
   257
176
     1
 90
        1
176
     1
 90
        1
176
     1
 40
1.0
176
     1
 90
        8
176
     1
 62
     7
176
     1
 40
1.0
176
     1
 90
        1
176
     1
 90
        6
176
     1
 90
        2
176
     1
 62
     7
176
     1
 90
        5
176
     1
 90
        0
176
     1
 90
        0
176
     1
290
     0
176
     1
 90
        1
176
     1
 40
0.0
176
     1
 90
        0
176
     1
290
     0
176
     1
290
     1
176
     1
290
     1
176
     1
290
     0
176
     1
290
     0
176
     1
290
     0
176
     1
290
     0
176
     1
290
     0
176
     1
290
     0
176
     1
 90
       50
176
     1
 40
0.0
176
     1
 40
1.0
176
     1
 90
        0
176
     1
 62
    18
176
     1
 90
       50
176
     1
 90
        3
176
     1
 62
     5
420
      255
176
     1
290
     0
176
     1
 90
       50
176
     1
 90
       50
176
     1
 90
       50
176
     1
290
     0
176
     1
 90
       50
176
     1
 62
   256
176
     0
 40
1.0
176
     0
 90
        2
176
     1
  1
strokes_ogs.tif
176
     1
290
     0
176
     1
 40
1.0
176
     1
 40
1.0
176
     1
  0
VISUALSTYLE
  5
1001E
102
{ACAD_REACTORS
330
1001D
102
}
330
1001D
100
AcDbVisualStyle
  2
Flat
 70
     0
177
     3
291
     1
 70
    58
 90
        2
176
     1
 90
        1
176
     1
 90
        1
176
     1
 90
        2
176
     1
 40
0.6
176
     1
 40
30.0
176
     1
 62
     7
420
 16777215
176
     1
 90
        0
176
     1
 90
        0
176
     1
 62
     7
176
     1
 62
   257
176
     1
 90
        1
176
     1
 90
        1
176
     1
 40
1.0
176
     1
 90
        8
176
     1
 62
     7
176
     1
 40
1.0
176
     1
 90
        1
176
     1
 90
        6
176
     1
 90
        2
176
     1
 62
     7
176
     1
 90
        5
176
     1
 90
        0
176
     1
 90
        0
176
     1
290
     0
176
     1
 90
       13
176
     1
 40
0.0
176
     1
 90
        0
176
     1
290
     0
176
     1
290
     1
176
     1
290
     1
176
     1
290
     0
176
     1
290
     0
176
     1
290
     0
176
     1
290
     0
176
     1
290
     0
176
     1
290
     0
176
     1
 90
       50
176
     1
 40
0.0
176
     1
 40
1.0
176
     1
 90
        0
176
     1
 62
    18
176
     1
 90
       50
176
     1
 90
        3
176
     1
 62
     5
420
      255
176
     1
290
     0
176
     1
 90
       50
176
     1
 90
       50
176
     1
 90
       50
176
     1
290
     0
176
     1
 90
       50
176
     1
 62
   256
176
     0
 40
1.0
176
     0
 90
        2
176
     1
  1
strokes_ogs.tif
176
     1
290
     0
176
     1
 40
1.0
176
     1
 40
1.0
176
     1
  0
VISUALSTYLE
  5
1001F
102
{ACAD_REACTORS
330
1001D
102
}
330
1001D
100
AcDbVisualStyle
  2
FlatWithEdges
 70
     1
177
     3
291
     1
 70
    58
 90
        2
176
     1
 90
        1
176
     1
 90
        1
176
     1
 90
        2
176
     1
 40
0.6
176
     1
 40
30.0
176
     1
 62
     7
420
 16777215
176
     1
 90
        1
176
     1
 90
        0
176
     1
 62
     7
176
     1
 62
   257
176
     1
 90
        1
176
     1
 90
        1
176
     1
 40
1.0
176
     1
 90
        0
176
     1
 62
   257
176
     1
 40
1.0
176
     1
 90
        1
176
     1
 90
        6
176
     1
 90
        2
176
     1
 62
     7
176
     1
 90
        5
176
     1
 90
        0
176
     1
 90
        0
176
     1
290
     0
176
     1
 90
       13
176
     1
 40
0.0
176
     1
 90
        0
176
     1
290
     0
176
     1
290
     1
176
     1
290
     1
176
     1
290
     0
176
     1
290
     0
176
     1
290
     0
176
     1
290
     0
176
     1
290
     0
176
     1
290
     0
176
     1
 90
       50
176
     1
 40
0.0
176
     1
 40
1.0
176
     1
 90
        0
176
     1
 62
    18
176
     1
 90
       50
176
     1
 90
        3
176
     1
 62
     5
420
      255
176
     1
290
     0
176
     1
 90
       50
176
     1
 90
       50
176
     1
 90
       50
176
     1
290
     0
176
     1
 90
       50
176
     1
 62
   256
176
     0
 40
1.0
176
     0
 90
        2
176
     1
  1
strokes_ogs.tif
176
     1
290
     0
176
     1
 40
1.0
176
     1
 40
1.0
176
     1
  0
VISUALSTYLE
  5
10020
102
{ACAD_REACTORS
330
1001D
102
}
330
1001D
100
AcDbVisualStyle
  2
Gouraud
 70
     2
177
     3
291
     1
 70
    58
 90
        2
176
     1
 90
        2
176
     1
 90
        1
176
     1
 90
        2
176
     1
 40
0.6
176
     1
 40
30.0
176
     1
 62
     7
420
 16777215
176
     1
 90
        0
176
     1
 90
        0
176
     1
 62
     7
176
     1
 62
   257
176
     1
 90
        1
176
     1
 90
        1
176
     1
 40
1.0
176
     1
 90
        0
176
     1
 62
     7
176
     1
 40
1.0
176
     1
 90
        1
176
     1
 90
        6
176
     1
 90
        2
176
     1
 62
     7
176
     1
 90
        5
176
     1
 90
        0
176
     1
 90
        0
176
     1
290
     0
176
     1
 90
       13
176
     1
 40
0.0
176
     1
 90
        0
176
     1
290
     0
176
     1
290
     1
176
     1
290
     1
176
     1
290
     0
176
     1
290
     0
176
     1
290
     0
176
     1
290
     0
176
     1
290
     0
176
     1
290
     0
176
     1
 90
       50
176
     1
 40
0.0
176
     1
 40
1.0
176
     1
 90
        0
176
     1
 62
    18
176
     1
 90
       50
176
     1
 90
        3
176
     1
 62
     5
420
      255
176
     1
290
     0
176
     1
 90
       50
176
     1
 90
       50
176
     1
 90
       50
176
     1
290
     0
176
     1
 90
       50
176
     1
 62
   256
176
     0
 40
1.0
176
     0
 90
        2
176
     1
  1
strokes_ogs.tif
176
     1
290
     0
176
     1
 40
1.0
176
     1
 40
1.0
176
     1
  0
VISUALSTYLE
  5
10021
102
{ACAD_REACTORS
330
1001D
102
}
330
1001D
100
AcDbVisualStyle
  2
GouraudWithEdges
 70
     3
177
     3
291
     1
 70
    58
 90
        2
176
     1
 90
        2
176
     1
 90
        1
176
     1
 90
        2
176
     1
 40
0.6
176
     1
 40
30.0
176
     1
 62
     7
420
 16777215
176
     1
 90
        1
176
     1
 90
        0
176
     1
 62
     7
176
     1
 62
   257
176
     1
 90
        1
176
     1
 90
        1
176
     1
 40
1.0
176
     1
 90
        0
176
     1
 62
   257
176
     1
 40
1.0
176
     1
 90
        1
176
     1
 90
        6
176
     1
 90
        2
176
     1
 62
     7
176
     1
 90
        5
176
     1
 90
        0
176
     1
 90
        0
176
     1
290
     0
176
     1
 90
       13
176
     1
 40
0.0
176
     1
 90
        0
176
     1
290
     0
176
     1
290
     1
176
     1
290
     1
176
     1
290
     0
176
     1
290
     0
176
     1
290
     0
176
     1
290
     0
176
     1
290
     0
176
     1
290
     0
176
     1
 90
       50
176
     1
 40
0.0
176
     1
 40
1.0
176
     1
 90
        0
176
     1
 62
    18
176
     1
 90
       50
176
     1
 90
        3
176
     1
 62
     5
420
      255
176
     1
290
     0
176
     1
 90
       50
176
     1
 90
       50
176
     1
 90
       50
176
     1
290
     0
176
     1
 90
       50
176
     1
 62
   256
176
     0
 40
1.0
176
     0
 90
        2
176
     1
  1
strokes_ogs.tif
176
     1
290
     0
176
     1
 40
1.0
176
     1
 40
1.0
176
     1
  0
VISUALSTYLE
  5
10025
102
{ACAD_REACTORS
330
1001D
102
}
330
1001D
100
AcDbVisualStyle
  2
Hidden
 70
     6
177
     3
291
     0
 70
    58
 90
        1
176
     1
 90
        2
176
     1
 90
        2
176
     1
 90
        0
176
     1
 40
0.6
176
     1
 40
30.0
176
     1
 62
     7
420
 16777215
176
     1
 90
        2
176
     1
 90
        2
176
     1
 62
     7
176
     1
 62
   257
176
     1
 90
        2
176
     1
 90
        1
176
     1
 40
40.0
176
     1
 90
        0
176
     1
 62
   257
176
     1
 40
1.0
176
     1
 90
        1
176
     1
 90
        6
176
     1
 90
        2
176
     1
 62
     7
176
     1
 90
        3
176
     1
 90
        0
176
     1
 90
        0
176
     1
290
     0
176
     1
 90
        1
176
     1
 40
0.0
176
     1
 90
        0
176
     1
290
     0
176
     1
290
     1
176
     1
290
     1
176
     1
290
     0
176
     1
290
     0
176
     1
290
     0
176
     1
290
     0
176
     1
290
     0
176
     1
290
     0
176
     1
 90
       50
176
     1
 40
0.0
176
     1
 40
1.0
176
     1
 90
        0
176
     1
 62
    18
176
     1
 90
       50
176
     1
 90
        3
176
     1
 62
     5
420
      255
176
     1
290
     0
176
     1
 90
       50
176
     1
 90
       50
176
     1
 90
       50
176
     1
290
     0
176
     1
 90
       50
176
     1
 62
   256
176
     0
 40
1.0
176
     0
 90
        2
176
     1
  1
strokes_ogs.tif
176
     1
290
     0
176
     1
 40
1.0
176
     1
 40
1.0
176
     1
  0
VISUALSTYLE
  5
10033
102
{ACAD_REACTORS
330
1001D
102
}
330
1001D
100
AcDbVisualStyle
  2
JitterOff
 70
    20
177
     3
291
     1
 70
    58
 90
        2
176
     0
 90
        2
176
     0
 90
        0
176
     0
 90
        0
176
     0
 40
0.6
176
     0
 40
30.0
176
     0
 62
     7
420
 16777215
176
     0
 90
        1
176
     0
 90
        4
176
     0
 62
     7
176
     0
 62
   257
176
     0
 90
        1
176
     0
 90
        1
176
     0
 40
1.0
176
     0
 90
       10
176
     2
 62
     7
176
     0
 40
1.0
176
     0
 90
        1
176
     0
 90
        6
176
     0
 90
        2
176
     0
 62
     7
176
     0
 90
        5
176
     0
 90
        0
176
     0
 90
        0
176
     0
290
     0
176
     0
 90
        1
176
     0
 40
0.0
176
     0
 90
        0
176
     0
290
     0
176
     1
290
     1
176
     1
290
     1
176
     1
290
     0
176
     1
290
     0
176
     1
290
     0
176
     1
290
     0
176
     1
290
     0
176
     1
290
     0
176
     1
 90
       50
176
     0
 40
0.0
176
     0
 40
1.0
176
     0
 90
        0
176
     0
 62
    18
176
     0
 90
       50
176
     0
 90
        3
176
     0
 62
     5
420
      255
176
     0
290
     0
176
     1
 90
       50
176
     0
 90
       50
176
     0
 90
       50
176
     0
290
     0
176
     1
 90
       50
176
     0
 62
   256
176
     0
 40
1.0
176
     0
 90
        2
176
     0
  1
strokes_ogs.tif
176
     0
290
     0
176
     1
 40
1.0
176
     0
 40
1.0
176
     0
  0
VISUALSTYLE
  5
1002B
102
{ACAD_REACTORS
330
1001D
102
}
330
1001D
100
AcDbVisualStyle
  2
Linepattern
 70
    14
177
     3
291
     1
 70
    58
 90
        2
176
     1
 90
        2
176
     1
 90
        0
176
     1
 90
        0
176
     1
 40
0.6
176
     1
 40
30.0
176
     1
 62
     7
420
 16777215
176
     1
 90
        1
176
     1
 90
        4
176
     1
 62
     7
176
     1
 62
   257
176
     1
 90
        7
176
     1
 90
        7
176
     1
 40
1.0
176
     1
 90
        8
176
     1
 62
     7
176
     1
 40
1.0
176
     1
 90
        1
176
     1
 90
        6
176
     1
 90
        2
176
     1
 62
     7
176
     1
 90
        5
176
     1
 90
        0
176
     1
 90
        0
176
     1
290
     0
176
     1
 90
        1
176
     1
 40
0.0
176
     1
 90
        0
176
     1
290
     0
176
     1
290
     1
176
     1
290
     1
176
     1
290
     0
176
     1
290
     0
176
     1
290
     0
176
     1
290
     0
176
     1
290
     0
176
     1
290
     0
176
     1
 90
       50
176
     1
 40
0.0
176
     1
 40
1.0
176
     1
 90
        0
176
     1
 62
    18
176
     1
 90
       50
176
     1
 90
        3
176
     1
 62
     5
420
      255
176
     1
290
     0
176
     1
 90
       50
176
     1
 90
       50
176
     1
 90
       50
176
     1
290
     0
176
     1
 90
       50
176
     1
 62
   256
176
     0
 40
1.0
176
     0
 90
        2
176
     1
  1
strokes_ogs.tif
176
     1
290
     0
176
     1
 40
1.0
176
     1
 40
1.0
176
     1
  0
VISUALSTYLE
  5
10034
102
{ACAD_REACTORS
330
1001D
102
}
330
1001D
100
AcDbVisualStyle
  2
OverhangOff
 70
    21
177
     3
291
     1
 70
    58
 90
        2
176
     0
 90
        2
176
     0
 90
        0
176
     0
 90
        0
176
     0
 40
0.6
176
     0
 40
30.0
176
     0
 62
     7
420
 16777215
176
     0
 90
        1
176
     0
 90
        4
176
     0
 62
     7
176
     0
 62
   257
176
     0
 90
        1
176
     0
 90
        1
176
     0
 40
1.0
176
     0
 90
        9
176
     2
 62
     7
176
     0
 40
1.0
176
     0
 90
        1
176
     0
 90
        6
176
     0
 90
        2
176
     0
 62
     7
176
     0
 90
        5
176
     0
 90
        0
176
     0
 90
        0
176
     0
290
     0
176
     0
 90
        1
176
     0
 40
0.0
176
     0
 90
        0
176
     0
290
     0
176
     1
290
     1
176
     1
290
     1
176
     1
290
     0
176
     1
290
     0
176
     1
290
     0
176
     1
290
     0
176
     1
290
     0
176
     1
290
     0
176
     1
 90
       50
176
     0
 40
0.0
176
     0
 40
1.0
176
     0
 90
        0
176
     0
 62
    18
176
     0
 90
       50
176
     0
 90
        3
176
     0
 62
     5
420
      255
176
     0
290
     0
176
     1
 90
       50
176
     0
 90
       50
176
     0
 90
       50
176
     0
290
     0
176
     1
 90
       50
176
     0
 62
   256
176
     0
 40
1.0
176
     0
 90
        2
176
     0
  1
strokes_ogs.tif
176
     0
290
     0
176
     1
 40
1.0
176
     0
 40
1.0
176
     0
  0
VISUALSTYLE
  5
10027
102
{ACAD_REACTORS
330
1001D
102
}
330
1001D
100
AcDbVisualStyle
  2
Realistic
 70
     8
177
     3
291
     0
 70
    58
 90
        2
176
     1
 90
        3
176
     1
 90
        0
176
     1
 90
        2
176
     1
 40
0.6
176
     1
 40
30.0
176
     1
 62
     7
420
 16777215
176
     1
 90
        0
176
     1
 90
        0
176
     1
 62
     7
176
     1
 62
   257
176
     1
 90
        1
176
     1
 90
        1
176
     1
 40
1.0
176
     1
 90
        8
176
     1
 62
   257
176
     1
 40
1.0
176
     1
 90
        1
176
     1
 90
        6
176
     1
 90
        2
176
     1
 62
     7
176
     1
 90
        3
176
     1
 90
        0
176
     1
 90
        0
176
     1
290
     0
176
     1
 90
       13
176
     1
 40
0.0
176
     1
 90
        0
176
     1
290
     0
176
     1
290
     1
176
     1
290
     1
176
     1
290
     0
176
     1
290
     0
176
     1
290
     0
176
     1
290
     0
176
     1
290
     0
176
     1
290
     0
176
     1
 90
       50
176
     1
 40
0.0
176
     1
 40
1.0
176
     1
 90
        0
176
     1
 62
    18
176
     1
 90
       50
176
     1
 90
        3
176
     1
 62
     5
420
      255
176
     1
290
     0
176
     1
 90
       50
176
     1
 90
       50
176
     1
 90
       50
176
     1
290
     0
176
     1
 90
       50
176
     1
 62
   256
176
     0
 40
1.0
176
     0
 90
        2
176
     1
  1
strokes_ogs.tif
176
     1
290
     0
176
     1
 40
1.0
176
     1
 40
1.0
176
     1
  0
VISUALSTYLE
  5
10032
102
{ACAD_REACTORS
330
1001D
102
}
330
1001D
100
AcDbVisualStyle
  2
Shaded
 70
    27
177
     3
291
     0
 70
    58
 90
        2
176
     1
 90
        2
176
     1
 90
        1
176
     1
 90
        2
176
     1
 40
0.6
176
     1
 40
30.0
176
     1
 62
     7
420
 16777215
176
     1
 90
        0
176
     1
 90
        4
176
     1
 62
     7
176
     1
 62
   257
176
     1
 90
        1
176
     1
 90
        1
176
     1
 40
1.0
176
     1
 90
        8
176
     1
 62
   257
176
     1
 40
1.0
176
     1
 90
        1
176
     1
 90
        6
176
     1
 90
        2
176
     1
 62
     8
420
  7895160
176
     1
 90
        3
176
     1
 90
        0
176
     1
 90
        0
176
     1
290
     0
176
     1
 90
        5
176
     1
 40
0.0
176
     1
 90
        0
176
     1
290
     0
176
     1
290
     1
176
     1
290
     1
176
     1
290
     0
176
     1
290
     0
176
     1
290
     0
176
     1
290
     0
176
     1
290
     0
176
     1
290
     0
176
     1
 90
       50
176
     1
 40
0.0
176
     1
 40
1.0
176
     1
 90
        0
176
     1
 62
    18
176
     1
 90
       50
176
     1
 90
        3
176
     1
 62
     5
420
      255
176
     1
290
     0
176
     1
 90
       50
176
     1
 90
       50
176
     1
 90
       50
176
     1
290
     0
176
     1
 90
       50
176
     1
 62
   256
176
     0
 40
1.0
176
     0
 90
        2
176
     1
  1
strokes_ogs.tif
176
     1
290
     0
176
     1
 40
1.0
176
     1
 40
1.0
176
     1
  0
VISUALSTYLE
  5
10031
102
{ACAD_REACTORS
330
1001D
102
}
330
1001D
100
AcDbVisualStyle
  2
Shaded with edges
 70
    26
177
     3
291
     0
 70
    58
 90
        2
176
     1
 90
        2
176
     1
 90
        1
176
     1
 90
        2
176
     1
 40
0.6
176
     1
 40
30.0
176
     1
 62
     7
420
 16777215
176
     1
 90
        1
176
     1
 90
        2
176
     1
 62
     7
176
     1
 62
   257
176
     1
 90
        2
176
     1
 90
        1
176
     1
 40
1.0
176
     1
 90
        8
176
     1
 62
   257
176
     1
 40
1.0
176
     1
 90
        1
176
     1
 90
        6
176
     1
 90
        2
176
     1
 62
     7
176
     1
 90
        3
176
     1
 90
        0
176
     1
 90
        0
176
     1
290
     0
176
     1
 90
        5
176
     1
 40
0.0
176
     1
 90
        0
176
     1
290
     0
176
     1
290
     1
176
     1
290
     1
176
     1
290
     0
176
     1
290
     0
176
     1
290
     0
176
     1
290
     0
176
     1
290
     0
176
     1
290
     0
176
     1
 90
       50
176
     1
 40
0.0
176
     1
 40
1.0
176
     1
 90
        0
176
     1
 62
    18
176
     1
 90
       50
176
     1
 90
        3
176
     1
 62
     5
420
      255
176
     1
290
     0
176
     1
 90
       50
176
     1
 90
       50
176
     1
 90
       50
176
     1
290
     0
176
     1
 90
       50
176
     1
 62
   256
176
     0
 40
1.0
176
     0
 90
        2
176
     1
  1
strokes_ogs.tif
176
     1
290
     0
176
     1
 40
1.0
176
     1
 40
1.0
176
     1
  0
VISUALSTYLE
  5
1002E
102
{ACAD_REACTORS
330
1001D
102
}
330
1001D
100
AcDbVisualStyle
  2
Shades of Gray
 70
    23
177
     3
291
     0
 70
    58
 90
        2
176
     1
 90
        2
176
     1
 90
        3
176
     1
 90
        0
176
     1
 40
0.6
176
     1
 40
30.0
176
     1
 62
     7
420
 16777215
176
     1
 90
        2
176
     1
 90
        2
176
     1
 62
     7
176
     1
 62
     7
176
     1
 90
        1
176
     1
 90
        1
176
     1
 40
40.0
176
     1
 90
        8
176
     1
 62
     7
176
     1
 40
1.0
176
     1
 90
        1
176
     1
 90
        6
176
     1
 90
        2
176
     1
 62
     7
176
     1
 90
        3
176
     1
 90
        0
176
     1
 90
        0
176
     1
290
     0
176
     1
 90
        1
176
     1
 40
0.0
176
     1
 90
        0
176
     1
290
     0
176
     1
290
     1
176
     1
290
     1
176
     1
290
     0
176
     1
290
     0
176
     1
290
     0
176
     1
290
     0
176
     1
290
     0
176
     1
290
     0
176
     1
 90
       50
176
     1
 40
0.0
176
     1
 40
1.0
176
     1
 90
        0
176
     1
 62
    18
176
     1
 90
       50
176
     1
 90
        3
176
     1
 62
     5
420
      255
176
     1
290
     0
176
     1
 90
       50
176
     1
 90
       50
176
     1
 90
       50
176
     1
290
     0
176
     1
 90
       50
176
     1
 62
   256
176
     0
 40
1.0
176
     0
 90
        2
176
     1
  1
strokes_ogs.tif
176
     1
290
     0
176
     1
 40
1.0
176
     1
 40
1.0
176
     1
  0
VISUALSTYLE
  5
1002F
102
{ACAD_REACTORS
330
1001D
102
}
330
1001D
100
AcDbVisualStyle
  2
Sketchy
 70
    24
177
     3
291
     0
 70
    58
 90
        1
176
     1
 90
        2
176
     1
 90
        2
176
     1
 90
        0
176
     1
 40
0.6
176
     1
 40
30.0
176
     1
 62
     7
420
 16777215
176
     1
 90
        2
176
     1
 90
        2
176
     1
 62
     7
176
     1
 62
     7
176
     1
 90
        1
176
     1
 90
        1
176
     1
 40
40.0
176
     1
 90
       11
176
     1
 62
     7
176
     1
 40
1.0
176
     1
 90
        1
176
     1
 90
        6
176
     1
 90
        2
176
     1
 62
     7
176
     1
 90
        6
176
     1
 90
        0
176
     1
 90
        0
176
     1
290
     0
176
     1
 90
        1
176
     1
 40
0.0
176
     1
 90
        0
176
     1
290
     0
176
     1
290
     1
176
     1
290
     1
176
     1
290
     0
176
     1
290
     0
176
     1
290
     0
176
     1
290
     0
176
     1
290
     0
176
     1
290
     0
176
     1
 90
       50
176
     1
 40
0.0
176
     1
 40
1.0
176
     1
 90
        0
176
     1
 62
    18
176
     1
 90
       50
176
     1
 90
        3
176
     1
 62
     5
420
      255
176
     1
290
     0
176
     1
 90
       50
176
     1
 90
       50
176
     1
 90
       50
176
     1
290
     0
176
     1
 90
       50
176
     1
 62
   256
176
     0
 40
1.0
176
     0
 90
        2
176
     1
  1
strokes_ogs.tif
176
     1
290
     0
176
     1
 40
1.0
176
     1
 40
1.0
176
     1
  0
VISUALSTYLE
  5
1002A
102
{ACAD_REACTORS
330
1001D
102
}
330
1001D
100
AcDbVisualStyle
  2
Thicken
 70
    13
177
     3
291
     1
 70
    58
 90
        2
176
     1
 90
        2
176
     1
 90
        0
176
     1
 90
        0
176
     1
 40
0.6
176
     1
 40
30.0
176
     1
 62
     7
420
 16777215
176
     1
 90
        1
176
     1
 90
        4
176
     1
 62
     7
176
     1
 62
   257
176
     1
 90
        1
176
     1
 90
        1
176
     1
 40
1.0
176
     1
 90
       12
176
     1
 62
     7
176
     1
 40
1.0
176
     1
 90
        1
176
     1
 90
        6
176
     1
 90
        2
176
     1
 62
     7
176
     1
 90
        5
176
     1
 90
        0
176
     1
 90
        0
176
     1
290
     0
176
     1
 90
        1
176
     1
 40
0.0
176
     1
 90
        0
176
     1
290
     0
176
     1
290
     1
176
     1
290
     1
176
     1
290
     0
176
     1
290
     0
176
     1
290
     0
176
     1
290
     0
176
     1
290
     0
176
     1
290
     0
176
     1
 90
       50
176
     1
 40
0.0
176
     1
 40
1.0
176
     1
 90
        0
176
     1
 62
    18
176
     1
 90
       50
176
     1
 90
        3
176
     1
 62
     5
420
      255
176
     1
290
     0
176
     1
 90
       50
176
     1
 90
       50
176
     1
 90
       50
176
     1
290
     0
176
     1
 90
       50
176
     1
 62
   256
176
     0
 40
1.0
176
     0
 90
        2
176
     1
  1
strokes_ogs.tif
176
     1
290
     0
176
     1
 40
1.0
176
     1
 40
1.0
176
     1
  0
VISUALSTYLE
  5
10024
102
{ACAD_REACTORS
330
1001D
102
}
330
1001D
100
AcDbVisualStyle
  2
Wireframe
 70
     5
177
     3
291
     0
 70
    58
 90
        0
176
     1
 90
        2
176
     1
 90
        0
176
     1
 90
        0
176
     1
 40
0.6
176
     1
 40
30.0
176
     1
 62
     7
420
 16777215
176
     1
 90
        1
176
     1
 90
        4
176
     1
 62
     7
176
     1
 62
   257
176
     1
 90
        1
176
     1
 90
        1
176
     1
 40
1.0
176
     1
 90
        0
176
     1
 62
   257
176
     1
 40
1.0
176
     1
 90
        1
176
     1
 90
        6
176
     1
 90
        2
176
     1
 62
     7
176
     1
 90
        3
176
     1
 90
        0
176
     1
 90
        0
176
     1
290
     0
176
     1
 90
        1
176
     1
 40
0.0
176
     1
 90
        0
176
     1
290
     0
176
     1
290
     1
176
     1
290
     1
176
     1
290
     0
176
     1
290
     0
176
     1
290
     0
176
     1
290
     0
176
     1
290
     0
176
     1
290
     0
176
     1
 90
       50
176
     1
 40
0.0
176
     1
 40
1.0
176
     1
 90
        0
176
     1
 62
    18
176
     1
 90
       50
176
     1
 90
        3
176
     1
 62
     5
420
      255
176
     1
290
     0
176
     1
 90
       50
176
     1
 90
       50
176
     1
 90
       50
176
     1
290
     0
176
     1
 90
       50
176
     1
 62
   256
176
     0
 40
1.0
176
     0
 90
        2
176
     1
  1
strokes_ogs.tif
176
     1
290
     0
176
     1
 40
1.0
176
     1
 40
1.0
176
     1
  0
VISUALSTYLE
  5
10030
102
{ACAD_REACTORS
330
1001D
102
}
330
1001D
100
AcDbVisualStyle
  2
X-Ray
 70
    25
177
     3
291
     0
 70
    58
 90
        2
176
     1
 90
        2
176
     1
 90
        1
176
     1
 90
        1
176
     1
 40
0.5
176
     1
 40
30.0
176
     1
 62
     7
420
 16777215
176
     1
 90
        1
176
     1
 90
        0
176
     1
 62
     7
176
     1
 62
   257
176
     1
 90
        1
176
     1
 90
        1
176
     1
 40
1.0
176
     1
 90
        8
176
     1
 62
     7
176
     1
 40
1.0
176
     1
 90
        1
176
     1
 90
        6
176
     1
 90
        2
176
     1
 62
     7
176
     1
 90
        3
176
     1
 90
        0
176
     1
 90
        0
176
     1
290
     0
176
     1
 90
       13
176
     1
 40
0.0
176
     1
 90
        0
176
     1
290
     0
176
     1
290
     1
176
     1
290
     1
176
     1
290
     0
176
     1
290
     0
176
     1
290
     0
176
     1
290
     0
176
     1
290
     0
176
     1
290
     0
176
     1
 90
       50
176
     1
 40
0.0
176
     1
 40
1.0
176
     1
 90
        0
176
     1
 62
    18
176
     1
 90
       50
176
     1
 90
        3
176
     1
 62
     5
420
      255
176
     1
290
     0
176
     1
 90
       50
176
     1
 90
       50
176
     1
 90
       50
176
     1
290
     0
176
     1
 90
       50
176
     1
 62
   256
176
     0
 40
1.0
176
     0
 90
        2
176
     1
  1
strokes_ogs.tif
176
     1
290
     0
176
     1
 40
1.0
176
     1
 40
1.0
176
     1
  0
DICTIONARYVAR
  5
10064
102
{ACAD_REACTORS
330
1005E
102
}
330
1005E
100
DictionaryVariables
280
     0
  1
1:1
  0
DICTIONARYVAR
  5
10060
102
{ACAD_REACTORS
330
1005E
102
}
330
1005E
100
DictionaryVariables
280
     0
  1
STANDARD
  0
DICTIONARYVAR
  5
1005F
102
{ACAD_REACTORS
330
1005E
102
}
330
1005E
100
DictionaryVariables
280
     0
  1
STANDARD
  0
DICTIONARYVAR
  5
10061
102
{ACAD_REACTORS
330
1005E
102
}
330
1005E
100
DictionaryVariables
280
     0
  1
Imperial24
  0
DICTIONARYVAR
  5
10062
102
{ACAD_REACTORS
330
1005E
102
}
330
1005E
100
DictionaryVariables
280
     0
  1
Imperial24
  0
DICTIONARYVAR
  5
10066
102
{ACAD_REACTORS
330
1005E
102
}
330
1005E
100
DictionaryVariables
280
     0
  1
1
  0
DICTIONARYVAR
  5
10067
102
{ACAD_REACTORS
330
1005E
102
}
330
1005E
100
DictionaryVariables
280
     0
  1
15
  0
DICTIONARYVAR
  5
10065
102
{ACAD_REACTORS
330
1005E
102
}
330
1005E
100
DictionaryVariables
280
     0
  1
0
  0
DICTIONARYVAR
  5
10063
102
{ACAD_REACTORS
330
1005E
102
}
330
1005E
100
DictionaryVariables
280
     0
  1
0
  0
DICTIONARY
  5
1000E
330
1000D
100
AcDbDictionary
280
     1
281
     1
  3
BUMPTILE
360
10010
  3
DIFFUSETILE
360
1000F
  3
OPACITYTILE
360
10013
  3
REFLECTIONTILE
360
10012
  3
REFRACTIONTILE
360
10014
  3
SPECULARTILE
360
10011
  0
DICTIONARY
  5
10006
330
10005
100
AcDbDictionary
280
     1
281
     1
  3
BUMPTILE
360
10008
  3
DIFFUSETILE
360
10007
  3
OPACITYTILE
360
1000B
  3
REFLECTIONTILE
360
1000A
  3
REFRACTIONTILE
360
1000C
  3
SPECULARTILE
360
10009
  0
DICTIONARY
  5
10016
330
10015
100
AcDbDictionary
280
     1
281
     1
  3
BUMPTILE
360
10018
  3
DIFFUSETILE
360
10017
  3
OPACITYTILE
360
1001B
  3
REFLECTIONTILE
360
1001A
  3
REFRACTIONTILE
360
1001C
  3
SPECULARTILE
360
10019
  0
DICTIONARY
  5
10068
330
10039
100
AcDbDictionary
280
     1
281
     1
  3
ACAD_ROUNDTRIP_2008_TABLESTYLE_CELLSTYLEMAP
360
100DA
  0
XRECORD
  5
10010
102
{ACAD_REACTORS
330
1000E
102
}
330
1000E
100
AcDbXrecord
280
     1
270
     1
271
     1
  0
XRECORD
  5
1000F
102
{ACAD_REACTORS
330
1000E
102
}
330
1000E
100
AcDbXrecord
280
     1
270
     1
271
     1
  0
XRECORD
  5
10013
102
{ACAD_REACTORS
330
1000E
102
}
330
1000E
100
AcDbXrecord
280
     1
270
     1
271
     1
  0
XRECORD
  5
10012
102
{ACAD_REACTORS
330
1000E
102
}
330
1000E
100
AcDbXrecord
280
     1
270
     1
271
     1
  0
XRECORD
  5
10014
102
{ACAD_REACTORS
330
1000E
102
}
330
1000E
100
AcDbXrecord
280
     1
270
     1
271
     1
  0
XRECORD
  5
10011
102
{ACAD_REACTORS
330
1000E
102
}
330
1000E
100
AcDbXrecord
280
     1
270
     1
271
     1
  0
XRECORD
  5
10008
102
{ACAD_REACTORS
330
10006
102
}
330
10006
100
AcDbXrecord
280
     1
270
     1
271
     1
  0
XRECORD
  5
10007
102
{ACAD_REACTORS
330
10006
102
}
330
10006
100
AcDbXrecord
280
     1
270
     1
271
     1
  0
XRECORD
  5
1000B
102
{ACAD_REACTORS
330
10006
102
}
330
10006
100
AcDbXrecord
280
     1
270
     1
271
     1
  0
XRECORD
  5
1000A
102
{ACAD_REACTORS
330
10006
102
}
330
10006
100
AcDbXrecord
280
     1
270
     1
271
     1
  0
XRECORD
  5
1000C
102
{ACAD_REACTORS
330
10006
102
}
330
10006
100
AcDbXrecord
280
     1
270
     1
271
     1
  0
XRECORD
  5
10009
102
{ACAD_REACTORS
330
10006
102
}
330
10006
100
AcDbXrecord
280
     1
270
     1
271
     1
  0
XRECORD
  5
10018
102
{ACAD_REACTORS
330
10016
102
}
330
10016
100
AcDbXrecord
280
     1
270
     1
271
     1
  0
XRECORD
  5
10017
102
{ACAD_REACTORS
330
10016
102
}
330
10016
100
AcDbXrecord
280
     1
270
     1
271
     1
  0
XRECORD
  5
1001B
102
{ACAD_REACTORS
330
10016
102
}
330
10016
100
AcDbXrecord
280
     1
270
     1
271
     1
  0
XRECORD
  5
1001A
102
{ACAD_REACTORS
330
10016
102
}
330
10016
100
AcDbXrecord
280
     1
270
     1
271
     1
  0
XRECORD
  5
1001C
102
{ACAD_REACTORS
330
10016
102
}
330
10016
100
AcDbXrecord
280
     1
270
     1
271
     1
  0
XRECORD
  5
10019
102
{ACAD_REACTORS
330
10016
102
}
330
10016
100
AcDbXrecord
280
     1
270
     1
271
     1
  0
CELLSTYLEMAP
  5
100DA
102
{ACAD_REACTORS
330
10068
102
}
330
10068
100
AcDbCellStyleMap
 90
        3
300
CELLSTYLE
  1
TABLEFORMAT_BEGIN
 90
        5
170
     1
 91
        0
 92
    32768
 62
   257
 93
        1
300
CONTENTFORMAT
  1
CONTENTFORMAT_BEGIN
 90
        0
 91
        0
 92
      512
 93
        0
300

 40
0.0
140
1.0
 94
        5
 62
     0
340
11
144
0.25
309
CONTENTFORMAT_END
171
     1
301
MARGIN
  1
CELLMARGIN_BEGIN
 40
0.06
 40
0.06
 40
0.06
 40
0.06
 40
0.18
 40
0.18
309
CELLMARGIN_END
 94
        6
 95
        1
302
GRIDFORMAT
  1
GRIDFORMAT_BEGIN
 90
        0
 91
        1
 62
     0
 92
       -2
340
0
 93
        0
 40
0.045
309
GRIDFORMAT_END
 95
        2
302
GRIDFORMAT
  1
GRIDFORMAT_BEGIN
 90
        0
 91
        1
 62
     0
 92
       -2
340
0
 93
        0
 40
0.045
309
GRIDFORMAT_END
 95
        4
302
GRIDFORMAT
  1
GRIDFORMAT_BEGIN
 90
        0
 91
        1
 62
     0
 92
       -2
340
0
 93
        0
 40
0.045
309
GRIDFORMAT_END
 95
        8
302
GRIDFORMAT
  1
GRIDFORMAT_BEGIN
 90
        0
 91
        1
 62
     0
 92
       -2
340
0
 93
        0
 40
0.045
309
GRIDFORMAT_END
 95
       16
302
GRIDFORMAT
  1
GRIDFORMAT_BEGIN
 90
        0
 91
        1
 62
     0
 92
       -2
340
0
 93
        0
 40
0.045
309
GRIDFORMAT_END
 95
       32
302
GRIDFORMAT
  1
GRIDFORMAT_BEGIN
 90
        0
 91
        1
 62
     0
 92
       -2
340
0
 93
        0
 40
0.045
309
GRIDFORMAT_END
309
TABLEFORMAT_END
  1
CELLSTYLE_BEGIN
 90
        1
 91
        1
300
_TITLE
309
CELLSTYLE_END
300
CELLSTYLE
  1
TABLEFORMAT_BEGIN
 90
        5
170
     1
 91
        0
 92
        0
 62
   257
 93
        1
300
CONTENTFORMAT
  1
CONTENTFORMAT_BEGIN
 90
        0
 91
        0
 92
      512
 93
        0
300

 40
0.0
140
1.0
 94
        5
 62
     0
340
11
144
0.18
309
CONTENTFORMAT_END
171
     1
301
MARGIN
  1
CELLMARGIN_BEGIN
 40
0.06
 40
0.06
 40
0.06
 40
0.06
 40
0.18
 40
0.18
309
CELLMARGIN_END
 94
        6
 95
        1
302
GRIDFORMAT
  1
GRIDFORMAT_BEGIN
 90
        0
 91
        1
 62
     0
 92
       -2
340
0
 93
        0
 40
0.045
309
GRIDFORMAT_END
 95
        2
302
GRIDFORMAT
  1
GRIDFORMAT_BEGIN
 90
        0
 91
        1
 62
     0
 92
       -2
340
0
 93
        0
 40
0.045
309
GRIDFORMAT_END
 95
        4
302
GRIDFORMAT
  1
GRIDFORMAT_BEGIN
 90
        0
 91
        1
 62
     0
 92
       -2
340
0
 93
        0
 40
0.045
309
GRIDFORMAT_END
 95
        8
302
GRIDFORMAT
  1
GRIDFORMAT_BEGIN
 90
        0
 91
        1
 62
     0
 92
       -2
340
0
 93
        0
 40
0.045
309
GRIDFORMAT_END
 95
       16
302
GRIDFORMAT
  1
GRIDFORMAT_BEGIN
 90
        0
 91
        1
 62
     0
 92
       -2
340
0
 93
        0
 40
0.045
309
GRIDFORMAT_END
 95
       32
302
GRIDFORMAT
  1
GRIDFORMAT_BEGIN
 90
        0
 91
        1
 62
     0
 92
       -2
340
0
 93
        0
 40
0.045
309
GRIDFORMAT_END
309
TABLEFORMAT_END
  1
CELLSTYLE_BEGIN
 90
        2
 91
        1
300
_HEADER
309
CELLSTYLE_END
300
CELLSTYLE
  1
TABLEFORMAT_BEGIN
 90
        5
170
     1
 91
        0
 92
        0
 62
   257
 93
        1
300
CONTENTFORMAT
  1
CONTENTFORMAT_BEGIN
 90
        0
 91
        0
 92
      512
 93
        0
300

 40
0.0
140
1.0
 94
        2
 62
     0
340
11
144
0.18
309
CONTENTFORMAT_END
171
     1
301
MARGIN
  1
CELLMARGIN_BEGIN
 40
0.06
 40
0.06
 40
0.06
 40
0.06
 40
0.18
 40
0.18
309
CELLMARGIN_END
 94
        6
 95
        1
302
GRIDFORMAT
  1
GRIDFORMAT_BEGIN
 90
        0
 91
        1
 62
     0
 92
       -2
340
0
 93
        0
 40
0.045
309
GRIDFORMAT_END
 95
        2
302
GRIDFORMAT
  1
GRIDFORMAT_BEGIN
 90
        0
 91
        1
 62
     0
 92
       -2
340
0
 93
        0
 40
0.045
309
GRIDFORMAT_END
 95
        4
302
GRIDFORMAT
  1
GRIDFORMAT_BEGIN
 90
        0
 91
        1
 62
     0
 92
       -2
340
0
 93
        0
 40
0.045
309
GRIDFORMAT_END
 95
        8
302
GRIDFORMAT
  1
GRIDFORMAT_BEGIN
 90
        0
 91
        1
 62
     0
 92
       -2
340
0
 93
        0
 40
0.045
309
GRIDFORMAT_END
 95
       16
302
GRIDFORMAT
  1
GRIDFORMAT_BEGIN
 90
        0
 91
        1
 62
     0
 92
       -2
340
0
 93
        0
 40
0.045
309
GRIDFORMAT_END
 95
       32
302
GRIDFORMAT
  1
GRIDFORMAT_BEGIN
 90
        0
 91
        1
 62
     0
 92
       -2
340
0
 93
        0
 40
0.045
309
GRIDFORMAT_END
309
TABLEFORMAT_END
  1
CELLSTYLE_BEGIN
 90
        3
 91
        2
300
_DATA
309
CELLSTYLE_END
  0
ENDSEC
  0
EOF
